<?xml version="1.0" encoding="UTF-8"?>
<svg version="1.1" xmlns="http://www.w3.org/2000/svg" width="300" height="450">
<path d="M0 0 C2.5 0.25 2.5 0.25 4.5 2.25 C4.84623925 5.25776534 5.06620823 8.16874531 5.1875 11.1875 C5.2272998 12.07034668 5.26709961 12.95319336 5.30810547 13.86279297 C6.19822912 37.85354177 6.19822912 37.85354177 3.5 43.25 C-0.24726958 43.6333662 -1.91458515 43.71890025 -4.9140625 41.31640625 C-5.64367187 40.49011719 -6.37328125 39.66382813 -7.125 38.8125 C-9.94652032 35.64942722 -11.40685857 34.17050997 -15.5 33.25 C-15.83 32.26 -16.16 31.27 -16.5 30.25 C-18.48 29.92 -20.46 29.59 -22.5 29.25 C-23.46573987 30.63851933 -24.43121915 32.0272205 -25.39550781 33.41674805 C-26.218999 34.60276504 -27.04388266 35.78781634 -27.87011719 36.97192383 C-30.72619562 41.07991291 -33.43720421 45.25355885 -36.015625 49.54296875 C-39.67200426 53.7478049 -45.84275901 53.96569223 -51.0625 54.8125 C-57.31845531 55.84890131 -57.31845531 55.84890131 -63.5 57.25 C-71.06571477 58.97695663 -75.96718707 57.71224556 -82.93359375 54.37890625 C-85.49039066 53.04867738 -85.49039066 53.04867738 -88.5 53.25 C-88.29503906 54.0234375 -88.09007813 54.796875 -87.87890625 55.59375 C-87.60949219 56.6353125 -87.34007813 57.676875 -87.0625 58.75 C-86.79566406 59.7709375 -86.52882813 60.791875 -86.25390625 61.84375 C-84.60305453 69.30252046 -84.10809551 73.88824609 -87.375 80.9375 C-91.54689294 90.35759617 -93.6930104 101.46794596 -90.81640625 111.67578125 C-87.24284948 118.36322567 -80.3739676 122.54809366 -73.5 125.25 C-70.06237833 126.05134611 -66.8298528 126.39029161 -63.3046875 126.4609375 C-62.34175781 126.48929687 -61.37882813 126.51765625 -60.38671875 126.546875 C-58.37128561 126.59915602 -56.35562769 126.64336707 -54.33984375 126.6796875 C-53.37949219 126.710625 -52.41914063 126.7415625 -51.4296875 126.7734375 C-50.55554199 126.79325684 -49.68139648 126.81307617 -48.78076172 126.83349609 C-46.0128596 127.3389597 -45.14597679 127.99278854 -43.5 130.25 C-39.95482687 140.54985113 -42.01489577 153.38418616 -45.9921875 163.1796875 C-47.79621891 166.85318151 -49.8283893 170.19522579 -52.265625 173.48046875 C-53.68782467 175.34113072 -53.68782467 175.34113072 -54.5 178.25 C-55.60756421 179.39217559 -56.72273641 180.52759973 -57.8671875 181.6328125 C-81.40533405 204.94571363 -99.49100124 234.15556124 -99.83447266 268.10961914 C-99.75396197 275.2059525 -98.38614888 281.93878691 -96.74731445 288.82495117 C-96.55999756 289.63424072 -96.37268066 290.44353027 -96.1796875 291.27734375 C-96.00163574 291.99656006 -95.82358398 292.71577637 -95.64013672 293.45678711 C-95.5938916 294.04854736 -95.54764648 294.64030762 -95.5 295.25 C-96.16 295.91 -96.82 296.57 -97.5 297.25 C-101.09555874 297.15012337 -103.00599454 295.98075851 -105.625 293.6875 C-108.25317489 290.92665737 -108.25317489 290.92665737 -111.5 291.25 C-113.140625 290.078125 -113.140625 290.078125 -114.75 288.5 C-115.29140625 287.98953125 -115.8328125 287.4790625 -116.390625 286.953125 C-116.75671875 286.39109375 -117.1228125 285.8290625 -117.5 285.25 C-117.33628906 284.63640625 -117.17257813 284.0228125 -117.00390625 283.390625 C-116.24806128 280.17974869 -117.61411937 278.58437092 -119.1875 275.75 C-121.41697553 271.5473105 -123.14075097 267.55782228 -124.5 263 C-126.18910426 257.63709398 -128.44105198 253.20747432 -132.5 249.25 C-133.20125 248.91226563 -133.9025 248.57453125 -134.625 248.2265625 C-136.5 247.25 -136.5 247.25 -137.5 244.25 C-145.90794763 240.54195776 -155.1320878 239.76858161 -163.75 242.9375 C-172.12701773 246.72616686 -176.23767882 251.77848855 -179.5 260.25 C-180.07809904 262.64741075 -180.3388748 264.77941357 -180.5 267.25 C-178.53883818 267.10741005 -178.53883818 267.10741005 -176.5 266.25 C-175.3532735 264.17402864 -175.3532735 264.17402864 -174.625 261.625 C-172.23374496 255.12115846 -169.26647282 250.93158152 -163.3125 247.3125 C-155.49397981 245.13356814 -147.710796 245.31971998 -140.5 249.25 C-132.45639763 254.66396314 -130.05568505 263.12166311 -126.69335938 271.79443359 C-124.19532799 278.20526615 -121.98841706 282.94366224 -116.9375 287.625 C-114.55291424 290.19301544 -114.1675413 291.0235504 -113.5 294.25 C-112.51 294.91 -111.52 295.57 -110.5 296.25 C-109.448125 297.36375 -109.448125 297.36375 -108.375 298.5 C-102.68838 303.93937565 -97.14685459 307.30080177 -89.5 309.25 C-88.901875 309.71792969 -88.30375 310.18585938 -87.6875 310.66796875 C-78.53365385 317.28816105 -64.44572198 317.89275397 -53.5 317.25 C-52.1633057 316.93041085 -50.82963517 316.5977919 -49.5 316.25 C-48.2625 316.1675 -47.025 316.085 -45.75 316 C-29.58107068 314.26856605 -14.63141748 306.77488002 -2.5 296.25 C-1.81292969 295.68410156 -1.12585938 295.11820312 -0.41796875 294.53515625 C6.76300664 288.51560094 13.88644142 281.47416964 18.5 273.25 C18.5 272.26 18.5 271.27 18.5 270.25 C19.45211112 268.22676387 20.44773272 266.22300116 21.5 264.25 C22.16 264.58 22.82 264.91 23.5 265.25 C31.55619078 249.42406079 37.22909717 233.72163208 40.5 216.25 C39.84 216.25 39.18 216.25 38.5 216.25 C38.5 213.94 38.5 211.63 38.5 209.25 C39.49 208.92 40.48 208.59 41.5 208.25 C45.80480157 197.85076025 44.74031697 184.17511075 44.75 173.1875 C44.75067474 172.49224213 44.75134949 171.79698425 44.75204468 171.08065796 C44.70038521 137.21763493 39.31204092 91.40003135 16.01953125 64.54296875 C14.86670907 63.42395367 13.68572401 62.33409053 12.5 61.25 C10.45519555 58.01137985 10.2515796 55.46520588 10.25708008 51.67114258 C10.25400345 50.55351028 10.25092682 49.43587799 10.24775696 48.28437805 C10.25853523 46.48265388 10.25853523 46.48265388 10.26953125 44.64453125 C10.26998947 43.4095842 10.27044769 42.17463715 10.2709198 40.90226746 C10.27471312 37.62615068 10.287713 34.35022862 10.30438232 31.07415771 C10.31786746 27.73237897 10.31465798 24.39063309 10.31445312 21.04882812 C10.31936715 18.51822715 10.32519496 15.98762776 10.33203125 13.45703125 C10.33314407 12.24980911 10.3342569 11.04258698 10.33540344 9.79878235 C10.34178329 8.69060654 10.34816315 7.58243073 10.35473633 6.44067383 C10.35854813 5.46012527 10.36235992 4.47957672 10.36628723 3.46931458 C10.5 1.25 10.5 1.25 11.5 0.25 C13.17708424 0.14602982 14.85852791 0.11147091 16.53881836 0.10473633 C17.61340805 0.09835648 18.68799774 0.09197662 19.79515076 0.08540344 C20.96489944 0.08429062 22.13464813 0.0831778 23.33984375 0.08203125 C24.53227188 0.07870285 25.72470001 0.07537445 26.95326233 0.07194519 C29.48112603 0.06687084 32.00899645 0.06453702 34.53686523 0.06469727 C38.41726654 0.0625114 42.29738346 0.04436243 46.17773438 0.02539062 C48.62760319 0.02245677 51.07747336 0.02047192 53.52734375 0.01953125 C55.27893044 0.00875298 55.27893044 0.00875298 57.06590271 -0.00224304 C58.68251549 0.0023719 58.68251549 0.0023719 60.33178711 0.00708008 C61.75955727 0.00494255 61.75955727 0.00494255 63.21617126 0.00276184 C65.5 0.25 65.5 0.25 67.5 2.25 C67.69546958 4.88129816 67.76486263 7.40716571 67.74723816 10.03948975 C67.74965257 10.85403791 67.75206699 11.66858607 67.75455457 12.50781751 C67.76021802 15.25496618 67.75150709 18.00188498 67.74291992 20.74902344 C67.74399252 22.71406619 67.74593086 24.67910864 67.74867249 26.64414978 C67.75354158 32.00855003 67.74582853 37.37286768 67.73571944 42.73725796 C67.72691881 48.38922973 67.72869714 54.04119904 67.7290802 59.69317627 C67.72814101 69.23345304 67.71944227 78.77369821 67.70581055 88.31396484 C67.69028027 99.22055046 67.6848055 110.127101 67.6855461 121.03369689 C67.68623329 132.74811625 67.67920594 144.46252269 67.6700995 156.17693806 C67.66800558 159.4886232 67.66726341 162.80030614 67.66686058 166.11199188 C67.66151516 187.80797905 67.59339917 209.50485109 67.22524321 231.19813395 C67.19380902 233.13392641 67.16659734 235.06979349 67.14423788 237.00571203 C66.91450652 255.92340994 64.21137362 273.22995651 58.5 291.25 C57.81722872 293.57912655 57.15680256 295.9133568 56.5 298.25 C55.84 298.25 55.18 298.25 54.5 298.25 C54.26023437 299.0853125 54.02046875 299.920625 53.7734375 300.78125 C52.30660803 304.7767855 50.35479331 308.14298141 48.125 311.75 C47.73828125 312.38808594 47.3515625 313.02617187 46.953125 313.68359375 C43.25100514 319.75854883 39.61360347 325.25531754 34.5 330.25 C32.79512269 332.24702765 31.10852508 334.25649358 29.44140625 336.28515625 C27.02637672 338.72934107 24.38895679 340.39056236 21.5 342.25 C20.32551224 343.07859175 19.15638702 343.91482658 17.9921875 344.7578125 C17.39792969 345.18707031 16.80367187 345.61632812 16.19140625 346.05859375 C14.97163359 346.94260104 13.7528967 347.82803913 12.53515625 348.71484375 C10.14823385 350.43613202 7.84850531 352.08106353 5.1953125 353.3671875 C3.14371881 354.26248457 3.14371881 354.26248457 1.5 357.25 C-0.31092195 357.72835674 -2.12650443 358.19306289 -3.95703125 358.58984375 C-7.07442232 359.39912039 -9.99877668 360.51977664 -13 361.6875 C-14.69189453 362.34492187 -14.69189453 362.34492187 -16.41796875 363.015625 C-18.14071321 363.70559617 -19.8581567 364.41099996 -21.55078125 365.171875 C-47.59735294 376.49144939 -86.63646357 370.88198743 -112.30224609 361.13427734 C-144.99397154 347.9805971 -169.48548025 323.15670941 -183.72314453 291.12402344 C-189.00759338 278.37624551 -192.21092548 265.06287896 -186.81640625 251.88671875 C-181.74368625 241.72622617 -174.16925509 235.99283218 -163.5 232.375 C-152.76268475 229.58630381 -142.76222691 231.53648609 -132.91796875 236.5703125 C-123.03913276 242.7298593 -118.4066643 250.48646629 -114.5 261.25 C-114.10554688 262.31089844 -113.71109375 263.37179687 -113.3046875 264.46484375 C-112.35169217 267.05392548 -111.41686473 269.64794815 -110.5 272.25 C-110.46036133 271.66734375 -110.42072266 271.0846875 -110.37988281 270.484375 C-108.61782104 245.71815869 -103.57919824 221.95584375 -87.5 202.25 C-86.20122091 200.4216984 -84.90969712 198.58822393 -83.625 196.75 C-80.04833223 191.8101229 -76.04654833 187.41518784 -71.89453125 182.95703125 C-68.94101337 179.61806243 -66.43885361 176.0872035 -63.95703125 172.390625 C-62.5 170.25 -62.5 170.25 -60.3125 167.625 C-54.82386582 160.43299659 -52.29256438 152.35263421 -51.875 143.375 C-51.81699219 142.34246094 -51.81699219 142.34246094 -51.7578125 141.2890625 C-51.66451834 139.60976754 -51.58121762 137.92992233 -51.5 136.25 C-52.80710938 136.41048828 -52.80710938 136.41048828 -54.140625 136.57421875 C-67.93840329 137.96295618 -80.46941122 135.18158706 -91.66796875 126.5859375 C-97.35688768 121.2730452 -101.19059933 114.40038904 -101.7734375 106.58203125 C-102.0777494 96.89386674 -101.04107804 89.00267366 -97.69140625 79.8984375 C-96.0349524 74.82588701 -94.92498125 70.24339833 -96.4375 65 C-98.21638308 58.72158914 -98.82548076 52.06664661 -96 46.0625 C-92.55731604 43.56655413 -89.66058657 42.86987996 -85.5 43.25 C-82.61624501 44.08604661 -79.88693613 45.09419142 -77.11328125 46.2421875 C-70.75475902 48.69435302 -66.92459488 47.78934591 -60.44482422 45.8371582 C-56.2428475 44.61518069 -52.52203727 44.11812284 -48.125 43.9375 C-45.11623587 43.51635401 -43.24717283 43.09081402 -41.19482422 40.78125 C-39.01262535 37.64523677 -37.24965135 34.35754729 -35.53515625 30.94921875 C-33.72756106 27.40479956 -31.46216712 24.93216127 -28.5 22.25 C-27.9225 21.651875 -27.345 21.05375 -26.75 20.4375 C-23.10944026 18.51609347 -19.51788133 18.58617613 -15.5 19.25 C-12.1875 21.25 -12.1875 21.25 -9.5 23.25 C-8.18 23.25 -6.86 23.25 -5.5 23.25 C-5.48018066 22.62432129 -5.46036133 21.99864258 -5.43994141 21.35400391 C-5.34485774 18.52723481 -5.23511254 15.70122185 -5.125 12.875 C-5.0940625 11.89015625 -5.063125 10.9053125 -5.03125 9.890625 C-4.97324219 8.47910156 -4.97324219 8.47910156 -4.9140625 7.0390625 C-4.8826416 6.16975098 -4.8512207 5.30043945 -4.81884766 4.40478516 C-4.33318942 1.12268743 -3.25137415 0.32513741 0 0 Z M-5.5 25.25 C-4.5 27.25 -4.5 27.25 -4.5 27.25 Z M40.5 210.25 C41.5 212.25 41.5 212.25 41.5 212.25 Z M-109.5 274.25 C-108.5 276.25 -108.5 276.25 -108.5 276.25 Z M-114.5 284.25 C-113.5 286.25 -113.5 286.25 -113.5 286.25 Z " fill="#61253C" transform="translate(203.5,43.75)"/>
<path d="M0 0 C8.50314332 1.70062866 13.72631286 9.54187756 19.09375 15.82421875 C20.4747416 17.40047351 21.89727591 18.94064424 23.34375 20.45703125 C56.240256 55.1303547 61.92623553 105.79928625 60.74697876 151.49105835 C60.71753677 152.60923447 60.71753677 152.60923447 60.6875 153.75 C60.6705307 154.4768399 60.6535614 155.20367981 60.63607788 155.95254517 C60.11771491 176.93482185 60.11771491 176.93482185 56 185 C55.51886399 186.50949906 55.07694487 188.03187339 54.66796875 189.5625 C54.30964966 190.87335571 54.30964966 190.87335571 53.9440918 192.21069336 C53.6944165 193.13116455 53.44474121 194.05163574 53.1875 195 C51.2215742 202.10346421 49.09807055 208.83812047 45.98046875 215.52734375 C44.87162237 218.06302969 44.87162237 218.06302969 44.48828125 221.19140625 C44 224 44 224 42 226 C41.525625 227.175625 41.05125 228.35125 40.5625 229.5625 C40.046875 230.696875 39.53125 231.83125 39 233 C35.71023192 234.09658936 34.28696233 233.79953138 31 233 C30.06158585 229.99564907 29.99181549 228.03516932 30.7421875 224.98828125 C30.92136719 224.22966797 31.10054688 223.47105469 31.28515625 222.68945312 C31.47980469 221.90505859 31.67445313 221.12066406 31.875 220.3125 C34.35303693 210.16963849 35.16524017 200.62982365 35.125 190.1875 C35.12886719 189.16462891 35.13273437 188.14175781 35.13671875 187.08789062 C35.13542969 186.10369141 35.13414062 185.11949219 35.1328125 184.10546875 C35.13112061 182.77745239 35.13112061 182.77745239 35.12939453 181.42260742 C35.00719903 179.13478477 34.56608436 177.20864296 34 175 C34.04125 173.906875 34.0825 172.81375 34.125 171.6875 C34.30943116 159.42282776 29.81286389 146.92569102 25.625 135.5625 C25.33367187 134.75490234 25.04234375 133.94730469 24.7421875 133.11523438 C22.81666007 127.87492838 20.58077276 122.95121822 18 118 C17.01 118 16.02 118 15 118 C14.9175 117.34 14.835 116.68 14.75 116 C13.28338623 110.13354492 10.35385273 104.22945693 6 100 C2.44327821 98.7811879 2.44327821 98.7811879 -1 98 C-1.99 97.01 -1.99 97.01 -3 96 C-2.505 94.515 -2.505 94.515 -2 93 C-3.43457328 92.0165504 -4.87277406 91.03839079 -6.3125 90.0625 C-7.11300781 89.51722656 -7.91351563 88.97195312 -8.73828125 88.41015625 C-15.53069477 84.17516267 -24.45797766 85.71625152 -32 87 C-42.82783163 87.75984783 -52.33168182 85.78651238 -61 79 C-65.43638862 74.33610427 -66.32964602 70.84745612 -66.2109375 64.4609375 C-65.19156966 52.56831267 -61.07364658 40.77047286 -52.09375 32.55859375 C-40.15931777 23.67456678 -26.54698764 21.35717076 -12 22 C-11.7525 21.15953125 -11.505 20.3190625 -11.25 19.453125 C-9.85664973 15.60399489 -8.05946743 12.27198778 -6 8.75 C-5.46632813 7.81414062 -5.46632813 7.81414062 -4.921875 6.859375 C-3.44547141 4.30321356 -2.09638349 2.09638349 0 0 Z M1 13 C0.65453125 14.20398438 0.3090625 15.40796875 -0.046875 16.6484375 C-1.70178004 21.51991852 -3.38559524 26.23389769 -7 30 C-12.46826705 32.4029321 -18.71236105 31.89801788 -24.57666016 31.90576172 C-33.94881003 32.27022372 -42.72958072 36.38217523 -49.125 43.125 C-54.59864378 49.77669835 -57.63436678 59.14312385 -57.53515625 67.74609375 C-56.67756859 71.35797755 -54.48023277 72.75483789 -51.53125 74.80859375 C-44.70856012 78.01989068 -39.22392463 78.2003502 -31.9375 77.125 C-19.20350432 75.38414996 -9.22379442 76.06514103 1.6875 83.625 C26.0049195 102.60444936 37.56420688 134.53225238 42.45703125 164.0078125 C42.8398736 166.91335626 42.8398736 166.91335626 44 169 C44.15004973 170.3734635 44.24838006 171.7528526 44.31640625 173.1328125 C44.35830078 173.93847656 44.40019531 174.74414062 44.44335938 175.57421875 C44.48267578 176.41597656 44.52199219 177.25773438 44.5625 178.125 C44.60568359 178.97449219 44.64886719 179.82398438 44.69335938 180.69921875 C44.79954236 182.79928223 44.90028497 184.89961948 45 187 C47.0999718 183.42461697 47.80586735 179.72140769 48.5 175.6875 C48.62673096 174.95909912 48.75346191 174.23069824 48.8840332 173.48022461 C49.94258529 167.03438655 50.61399365 160.56768553 51.1875 154.0625 C51.31318359 152.64360474 51.31318359 152.64360474 51.44140625 151.19604492 C53.483092 126.09079046 51.88384329 97.90316068 41.9375 74.5 C40.88163567 71.68436179 40.41469996 68.9720164 40 66 C39.34 66 38.68 66 38 66 C38.1954541 65.41968018 38.3909082 64.83936035 38.59228516 64.24145508 C39.0778654 61.5719268 38.67896243 60.55849384 37.5234375 58.13671875 C37.18183594 57.41419922 36.84023437 56.69167969 36.48828125 55.94726562 C36.12089844 55.20154297 35.75351563 54.45582031 35.375 53.6875 C35.03082031 52.95337891 34.68664062 52.21925781 34.33203125 51.46289062 C30.77625411 44.06923594 27.16391267 38.36064249 20 34 C18.125 32.4375 18.125 32.4375 17 31 C17 30.01 17 29.02 17 28 C15.34085885 25.42700453 13.25579424 23.1839957 11.25 20.875 C10.71117187 20.22917969 10.17234375 19.58335938 9.6171875 18.91796875 C9.08867187 18.30308594 8.56015625 17.68820313 8.015625 17.0546875 C7.53383789 16.49249512 7.05205078 15.93030273 6.55566406 15.35107422 C4.74338513 13.77713329 3.34174636 13.39954864 1 13 Z M58 168 C59 170 59 170 59 170 Z " fill="#66212C" transform="translate(182,79)"/>
<path d="M0 0 C2.5 0.25 2.5 0.25 4.5 2.25 C4.84623925 5.25776534 5.06620823 8.16874531 5.1875 11.1875 C5.2272998 12.07034668 5.26709961 12.95319336 5.30810547 13.86279297 C6.19822912 37.85354177 6.19822912 37.85354177 3.5 43.25 C-0.24726958 43.6333662 -1.91458515 43.71890025 -4.9140625 41.31640625 C-5.64367187 40.49011719 -6.37328125 39.66382813 -7.125 38.8125 C-9.94652032 35.64942722 -11.40685857 34.17050997 -15.5 33.25 C-15.83 32.26 -16.16 31.27 -16.5 30.25 C-18.48 29.92 -20.46 29.59 -22.5 29.25 C-23.46573987 30.63851933 -24.43121915 32.0272205 -25.39550781 33.41674805 C-26.218999 34.60276504 -27.04388266 35.78781634 -27.87011719 36.97192383 C-30.72619562 41.07991291 -33.43720421 45.25355885 -36.015625 49.54296875 C-39.67200426 53.7478049 -45.84275901 53.96569223 -51.0625 54.8125 C-57.31845531 55.84890131 -57.31845531 55.84890131 -63.5 57.25 C-71.06571477 58.97695663 -75.96718707 57.71224556 -82.93359375 54.37890625 C-85.49039066 53.04867738 -85.49039066 53.04867738 -88.5 53.25 C-88.29503906 54.0234375 -88.09007812 54.796875 -87.87890625 55.59375 C-87.60949219 56.6353125 -87.34007812 57.676875 -87.0625 58.75 C-86.79566406 59.7709375 -86.52882812 60.791875 -86.25390625 61.84375 C-84.60305453 69.30252046 -84.10809551 73.88824609 -87.375 80.9375 C-91.54689294 90.35759617 -93.6930104 101.46794596 -90.81640625 111.67578125 C-87.24284948 118.36322567 -80.3739676 122.54809366 -73.5 125.25 C-70.06237833 126.05134611 -66.8298528 126.39029161 -63.3046875 126.4609375 C-62.34175781 126.48929687 -61.37882812 126.51765625 -60.38671875 126.546875 C-58.37128561 126.59915602 -56.35562769 126.64336707 -54.33984375 126.6796875 C-53.37949219 126.710625 -52.41914063 126.7415625 -51.4296875 126.7734375 C-50.55554199 126.79325684 -49.68139648 126.81307617 -48.78076172 126.83349609 C-46.0128596 127.3389597 -45.14597679 127.99278854 -43.5 130.25 C-39.95482687 140.54985113 -42.01489577 153.38418616 -45.9921875 163.1796875 C-47.79621891 166.85318151 -49.8283893 170.19522579 -52.265625 173.48046875 C-53.68782467 175.34113072 -53.68782467 175.34113072 -54.5 178.25 C-55.60756421 179.39217559 -56.72273641 180.52759973 -57.8671875 181.6328125 C-81.40533405 204.94571363 -99.49100124 234.15556124 -99.83447266 268.10961914 C-99.75396197 275.2059525 -98.38614888 281.93878691 -96.74731445 288.82495117 C-96.55999756 289.63424072 -96.37268066 290.44353027 -96.1796875 291.27734375 C-96.00163574 291.99656006 -95.82358398 292.71577637 -95.64013672 293.45678711 C-95.5938916 294.04854736 -95.54764648 294.64030762 -95.5 295.25 C-96.16 295.91 -96.82 296.57 -97.5 297.25 C-101.09555874 297.15012337 -103.00599454 295.98075851 -105.625 293.6875 C-108.25317489 290.92665737 -108.25317489 290.92665737 -111.5 291.25 C-113.140625 290.078125 -113.140625 290.078125 -114.75 288.5 C-115.29140625 287.98953125 -115.8328125 287.4790625 -116.390625 286.953125 C-116.75671875 286.39109375 -117.1228125 285.8290625 -117.5 285.25 C-117.33242187 284.64285156 -117.16484375 284.03570312 -116.9921875 283.41015625 C-116.23892791 280.10418359 -117.7591498 278.33783941 -119.375 275.4375 C-121.78895723 270.87221515 -123.26621717 267.39322223 -123.5 262.25 C-122.84 262.25 -122.18 262.25 -121.5 262.25 C-119.375 269 -119.375 269 -120.5 271.25 C-119.18 271.25 -117.86 271.25 -116.5 271.25 C-116.41995518 267.7280279 -116.45994298 264.63018531 -117.5 261.25 C-118.16 261.25 -118.82 261.25 -119.5 261.25 C-119.5 257.95 -119.5 254.65 -119.5 251.25 C-116.61631938 255.0949075 -115.26703265 258.38956147 -113.875 262.875 C-112.42929077 267.6569529 -112.42929077 267.6569529 -110.5 272.25 C-110.46036133 271.66734375 -110.42072266 271.0846875 -110.37988281 270.484375 C-108.61782104 245.71815869 -103.57919824 221.95584375 -87.5 202.25 C-86.20122091 200.4216984 -84.90969712 198.58822393 -83.625 196.75 C-80.04833223 191.8101229 -76.04654833 187.41518784 -71.89453125 182.95703125 C-68.94101337 179.61806243 -66.43885361 176.0872035 -63.95703125 172.390625 C-62.5 170.25 -62.5 170.25 -60.3125 167.625 C-54.82386582 160.43299659 -52.29256438 152.35263421 -51.875 143.375 C-51.83632812 142.68664062 -51.79765625 141.99828125 -51.7578125 141.2890625 C-51.66451834 139.60976754 -51.58121762 137.92992233 -51.5 136.25 C-52.37140625 136.35699219 -53.2428125 136.46398437 -54.140625 136.57421875 C-67.93840329 137.96295618 -80.46941122 135.18158706 -91.66796875 126.5859375 C-97.35688768 121.2730452 -101.19059933 114.40038904 -101.7734375 106.58203125 C-102.0777494 96.89386674 -101.04107804 89.00267366 -97.69140625 79.8984375 C-96.0349524 74.82588701 -94.92498125 70.24339833 -96.4375 65 C-98.21638308 58.72158914 -98.82548076 52.06664661 -96 46.0625 C-92.55731604 43.56655413 -89.66058657 42.86987996 -85.5 43.25 C-82.61624501 44.08604661 -79.88693613 45.09419142 -77.11328125 46.2421875 C-70.75475902 48.69435302 -66.92459488 47.78934591 -60.44482422 45.8371582 C-56.2428475 44.61518069 -52.52203727 44.11812284 -48.125 43.9375 C-45.11623587 43.51635401 -43.24717283 43.09081402 -41.19482422 40.78125 C-39.01262535 37.64523677 -37.24965135 34.35754729 -35.53515625 30.94921875 C-33.72756106 27.40479956 -31.46216712 24.93216127 -28.5 22.25 C-27.63375 21.3528125 -27.63375 21.3528125 -26.75 20.4375 C-23.10944026 18.51609347 -19.51788133 18.58617613 -15.5 19.25 C-12.1875 21.25 -12.1875 21.25 -9.5 23.25 C-8.18 23.25 -6.86 23.25 -5.5 23.25 C-5.48018066 22.62432129 -5.46036133 21.99864258 -5.43994141 21.35400391 C-5.34485774 18.52723481 -5.23511254 15.70122185 -5.125 12.875 C-5.0940625 11.89015625 -5.063125 10.9053125 -5.03125 9.890625 C-4.99257812 8.94960938 -4.95390625 8.00859375 -4.9140625 7.0390625 C-4.86693115 5.73509521 -4.86693115 5.73509521 -4.81884766 4.40478516 C-4.33318942 1.12268743 -3.25137415 0.32513741 0 0 Z M-5.5 25.25 C-4.5 27.25 -4.5 27.25 -4.5 27.25 Z M-109.5 274.25 C-108.5 276.25 -108.5 276.25 -108.5 276.25 Z M-114.5 284.25 C-113.5 286.25 -113.5 286.25 -113.5 286.25 Z " fill="#6F2630" transform="translate(203.5,43.75)"/>
<path d="M0 0 C5.05791235 1.29440656 8.17652281 3.50781494 11.75 7.1875 C12.26151611 7.70562256 12.77303223 8.22374512 13.30004883 8.75756836 C19.4659009 15.22661217 26.1519294 23.45578821 29 32 C29.52996947 33.23482716 30.074203 34.46358413 30.62890625 35.6875 C30.94150391 36.38617188 31.25410156 37.08484375 31.57617188 37.8046875 C32.23438166 39.26969304 32.89584974 40.73323895 33.56054688 42.1953125 C36 47.67019281 36 47.67019281 36 51 C36.66 51.33 37.32 51.66 38 52 C37.505 52.99 37.505 52.99 37 54 C37.66 54 38.32 54 39 54 C39.144375 55.11375 39.28875 56.2275 39.4375 57.375 C39.78372035 60.82142047 39.78372035 60.82142047 41 63 C41.26362395 64.48497946 41.48526552 65.97755508 41.68359375 67.47265625 C41.80669922 68.37306641 41.92980469 69.27347656 42.05664062 70.20117188 C42.30690262 72.08134535 42.55691037 73.96155269 42.80664062 75.84179688 C43.41989 80.32518994 44.12076636 84.71481368 45.16015625 89.12109375 C45.43730469 90.40113281 45.71445313 91.68117188 46 93 C45.67 93.33 45.34 93.66 45 94 C44.8537219 96.04770494 44.77257114 98.10012639 44.71875 100.15234375 C44.68136719 101.40337891 44.64398438 102.65441406 44.60546875 103.94335938 C44.57066406 105.26142578 44.53585938 106.57949219 44.5 107.9375 C44.43133965 110.53006414 44.35863264 113.1225253 44.28125 115.71484375 C44.25095703 116.87105225 44.22066406 118.02726074 44.18945312 119.21850586 C44 122 44 122 43 124 C41.51635243 128.4509427 40.2684927 132.97394247 38.9921875 137.48828125 C37.63636034 142.17580565 35.98099519 146.5413813 34 151 C33.649375 152.0725 33.29875 153.145 32.9375 154.25 C32 157 32 157 30 160 C29.34 160 28.68 160 28 160 C27.979375 160.70125 27.95875 161.4025 27.9375 162.125 C26.51959667 166.47323688 23.58192068 168.31355949 20 171 C18.87851563 171.87205078 18.87851563 171.87205078 17.734375 172.76171875 C9.65351758 178.77022725 0.7436926 182.56407685 -9 185 C-9.55300781 185.185625 -10.10601562 185.37125 -10.67578125 185.5625 C-20.12501054 187.34117845 -33.05175516 185.96918197 -41.1015625 180.59765625 C-50.86798388 172.82475534 -55.11136812 161.49884344 -57.75 149.625 C-58.87321777 133.33834234 -56.53823329 119.15539923 -50.79296875 104.01171875 C-50.53128906 103.01785156 -50.26960938 102.02398437 -50 101 C-50.66 100.01 -51.32 99.02 -52 98 C-49 96 -49 96 -47 96 C-45.56668449 94.29054027 -45.56668449 94.29054027 -44.12890625 92.046875 C-43.27607056 90.78580933 -43.27607056 90.78580933 -42.40600586 89.49926758 C-41.79764893 88.59200928 -41.18929199 87.68475098 -40.5625 86.75 C-35.70104902 79.6404001 -30.74241824 73.27386408 -24.796875 67.046875 C-10.02749441 51.29713149 -0.61296563 35.50442993 -0.85546875 13.546875 C-0.97130836 10.70410843 -1.19975538 7.99513921 -1.625 5.1875 C-1.74875 4.135625 -1.8725 3.08375 -2 2 C-1.34 1.34 -0.68 0.68 0 0 Z M9 19 C8.76216797 20.52367187 8.76216797 20.52367187 8.51953125 22.078125 C5.25046052 41.86155601 -3.41477861 56.50017421 -17 71 C-35.01287444 91.15537493 -49.48218013 113.32348022 -49.21484375 141.3046875 C-48.49230489 153.73235596 -44.71006034 165.00955737 -35.6484375 173.72265625 C-32.83037032 175.90632442 -30.23845398 176.12752164 -26.8046875 176.1328125 C-26.00675781 176.13410156 -25.20882812 176.13539063 -24.38671875 176.13671875 C-23.14341797 176.13091797 -23.14341797 176.13091797 -21.875 176.125 C-21.03839844 176.12886719 -20.20179688 176.13273438 -19.33984375 176.13671875 C-15.35284244 176.53149953 -15.35284244 176.53149953 -12 175 C-11.071875 175.0825 -10.14375 175.165 -9.1875 175.25 C-0.70457994 175.33727284 7.36807685 170.47868128 13.3046875 164.765625 C13.86414063 164.18296875 14.42359375 163.6003125 15 163 C15.53882813 162.45859375 16.07765625 161.9171875 16.6328125 161.359375 C18.24968793 159.68358739 18.24968793 159.68358739 20 157 C19.96624167 154.67828408 19.96624167 154.67828408 19 153 C19.66 153 20.32 153 21 153 C21.268125 152.195625 21.53625 151.39125 21.8125 150.5625 C22.204375 149.716875 22.59625 148.87125 23 148 C23.99 147.67 24.98 147.34 26 147 C30.22741051 138.91894394 33.16318463 129.07887363 34 120 C33.17753204 117.17424043 33.17753204 117.17424043 32 115 C32.99 114.67 33.98 114.34 35 114 C35.43830824 96.54184553 35.5316868 80.01405623 31 63 C30.34 63 29.68 63 29 63 C29.103125 62.113125 29.20625 61.22625 29.3125 60.3125 C29.3125 51.94776342 24.69581585 43.59161505 20.11328125 36.82421875 C18.94882986 34.91615278 18.2631543 33.11835248 17.5625 31 C15.97447927 26.37362746 13.2339997 22.64067032 10 19 C9.67 19 9.34 19 9 19 Z " fill="#4A132E" transform="translate(167,170)"/>
<path d="M0 0 C0.33 0 0.66 0 1 0 C1.64957631 3.49931587 2.29397258 6.99956712 2.9375 10.5 C3.11990234 11.48226562 3.30230469 12.46453125 3.49023438 13.4765625 C6.97526095 32.48579837 7.20507647 51.48059164 6.6875 70.75 C6.67044006 71.47620544 6.65338013 72.20241089 6.63580322 72.95062256 C6.1177421 93.93476861 6.1177421 93.93476861 2 102 C1.51886399 103.50949906 1.07694487 105.03187339 0.66796875 106.5625 C0.42908936 107.43640381 0.19020996 108.31030762 -0.0559082 109.21069336 C-0.3055835 110.13116455 -0.55525879 111.05163574 -0.8125 112 C-2.7784258 119.10346421 -4.90192945 125.83812047 -8.01953125 132.52734375 C-9.12837763 135.06302969 -9.12837763 135.06302969 -9.51171875 138.19140625 C-10 141 -10 141 -12 143 C-12.7115625 144.7634375 -12.7115625 144.7634375 -13.4375 146.5625 C-13.953125 147.696875 -14.46875 148.83125 -15 150 C-18.28976808 151.09658936 -19.71303767 150.79953138 -23 150 C-23.93841415 146.99564907 -24.00818451 145.03516932 -23.2578125 141.98828125 C-23.07863281 141.22966797 -22.89945313 140.47105469 -22.71484375 139.68945312 C-22.52019531 138.90505859 -22.32554687 138.12066406 -22.125 137.3125 C-19.64696307 127.16963849 -18.83475983 117.62982365 -18.875 107.1875 C-18.87113281 106.16462891 -18.86726562 105.14175781 -18.86328125 104.08789062 C-18.86521484 102.6115918 -18.86521484 102.6115918 -18.8671875 101.10546875 C-18.86887939 99.77745239 -18.86887939 99.77745239 -18.87060547 98.42260742 C-18.99283568 96.13413497 -19.43052847 94.20862606 -20 92 C-19.979375 90.88625 -19.95875 89.7725 -19.9375 88.625 C-19.83021063 82.35453251 -21.02851438 76.17587286 -22 70 C-21.01 69.505 -21.01 69.505 -20 69 C-19.01 69.99 -18.02 70.98 -17 72 C-16.34 70.02 -15.68 68.04 -15 66 C-15.66 66 -16.32 66 -17 66 C-17.12375 65.43410156 -17.2475 64.86820312 -17.375 64.28515625 C-18.03735666 61.86341472 -18.97385626 59.72746049 -20 57.4375 C-22.23441533 52.00528012 -22.77825869 46.83179651 -23 41 C-19.82455989 44.17544011 -19.01206606 48.29093357 -17.625 52.5 C-17.31481934 53.43384521 -17.00463867 54.36769043 -16.68505859 55.32983398 C-13.83992051 64.10816212 -11.82847928 72.96573949 -10 82 C-9.80148438 82.74378906 -9.60296875 83.48757812 -9.3984375 84.25390625 C-8.82500674 86.76688221 -8.97952426 89.24281139 -9.0625 91.8046875 C-8.98305895 94.59505424 -8.50010942 97.25721241 -8 100 C-6.06550193 90.39199294 -4.66184966 80.83002111 -3.8125 71.0625 C-3.72887207 70.11689209 -3.64524414 69.17128418 -3.55908203 68.19702148 C-2.67982363 57.40483373 -3.11876301 46.91374695 -3.9375 36.125 C-4.02451172 34.93519531 -4.11152344 33.74539062 -4.20117188 32.51953125 C-4.75521919 25.00911205 -5.36049839 17.50360031 -6 10 C-5.01 10.33 -4.02 10.66 -3 11 C-3.02320313 11.61488281 -3.04640625 12.22976562 -3.0703125 12.86328125 C-3.08835938 13.67152344 -3.10640625 14.47976562 -3.125 15.3125 C-3.14820313 16.11300781 -3.17140625 16.91351563 -3.1953125 17.73828125 C-3.15817322 20.28388576 -3.15817322 20.28388576 -1 23 C0.67713917 18.75782446 1.0144362 16.39589018 0 12 C0.4375 9.1875 0.4375 9.1875 1 7 C0.34 6.67 -0.32 6.34 -1 6 C-0.67 4.02 -0.34 2.04 0 0 Z M4 85 C5 87 5 87 5 87 Z " fill="#451233" transform="translate(236,162)"/>
<path d="M0 0 C0.33 0 0.66 0 1 0 C1.02357076 26.19499294 1.04109598 52.38998425 1.05181217 78.58498573 C1.05692458 90.75327539 1.06386828 102.92155838 1.07543945 115.08984375 C1.08554355 125.72059839 1.09188995 136.35134821 1.09408849 146.98210752 C1.09536952 152.58836491 1.09828303 158.19460849 1.10573006 163.80086136 C1.13316878 185.51892071 1.09947787 207.23734667 0.72992599 228.95281672 C0.69830445 230.88839221 0.67087707 232.82404218 0.64826977 234.75974393 C0.41545276 253.67461577 -2.2894868 270.98267123 -8 289 C-8.68277128 291.32912655 -9.34319744 293.6633568 -10 296 C-10.66 296 -11.32 296 -12 296 C-12.23976563 296.8353125 -12.47953125 297.670625 -12.7265625 298.53125 C-14.19339197 302.5267855 -16.14520669 305.89298141 -18.375 309.5 C-18.76171875 310.13808594 -19.1484375 310.77617187 -19.546875 311.43359375 C-23.24899486 317.50854883 -26.88639653 323.00531754 -32 328 C-33.70487731 329.99702765 -35.39147492 332.00649358 -37.05859375 334.03515625 C-39.47362328 336.47934107 -42.11104321 338.14056236 -45 340 C-46.17448776 340.82859175 -47.34361298 341.66482658 -48.5078125 342.5078125 C-49.10207031 342.93707031 -49.69632812 343.36632812 -50.30859375 343.80859375 C-51.52836641 344.69260104 -52.7471033 345.57803913 -53.96484375 346.46484375 C-56.35176615 348.18613202 -58.65149469 349.83106353 -61.3046875 351.1171875 C-63.35628119 352.01248457 -63.35628119 352.01248457 -65 355 C-66.81092195 355.47835674 -68.62650443 355.94306289 -70.45703125 356.33984375 C-73.57442232 357.14912039 -76.49877668 358.26977664 -79.5 359.4375 C-81.19189453 360.09492187 -81.19189453 360.09492187 -82.91796875 360.765625 C-84.64071321 361.45559617 -86.3581567 362.16099996 -88.05078125 362.921875 C-111.85007311 373.2648045 -149.15154019 369.26199713 -173 361 C-172.67 360.34 -172.34 359.68 -172 359 C-167.04180654 359.41318279 -162.60179979 360.08118188 -157.83984375 361.51953125 C-150.17143219 363.46923693 -142.65532922 363.45162094 -134.79321289 363.39111328 C-132.33357305 363.37513688 -129.87560349 363.39098105 -127.41601562 363.41015625 C-116.64016292 363.42445526 -106.53226292 362.23545926 -96 360 C-95.11143311 359.82259277 -94.22286621 359.64518555 -93.30737305 359.46240234 C-65.28544676 353.57776675 -38.55530923 332.88465163 -22.9375 309.125 C-7.26842355 282.63456537 -3.90622459 253.70336858 -3.79467773 223.578125 C-3.78506806 221.90090714 -3.77505634 220.22369155 -3.76467896 218.54647827 C-3.73795778 214.04758393 -3.71677362 209.54867944 -3.69667697 205.04975128 C-3.67461183 200.3279085 -3.64732486 195.60609576 -3.62062073 190.88427734 C-3.57096838 181.96708617 -3.52592925 173.04987808 -3.48259836 164.13265419 C-3.43298928 153.97042517 -3.37815996 143.80822633 -3.32291877 133.64602661 C-3.20952099 112.76404594 -3.10259225 91.88203637 -3 71 C-2.67 71 -2.34 71 -2 71 C-0.90702618 55.9920613 -0.68009275 40.97924086 -0.4375 25.9375 C-0.39420202 23.41340592 -0.3505846 20.88931729 -0.30664062 18.36523438 C-0.20074791 12.24354757 -0.09878472 6.12180542 0 0 Z " fill="#2F0D22" transform="translate(270,46)"/>
<path d="M0 0 C0.33 0.99 0.66 1.98 1 3 C1.52996947 4.23482716 2.074203 5.46358413 2.62890625 6.6875 C2.94150391 7.38617188 3.25410156 8.08484375 3.57617188 8.8046875 C4.23438166 10.26969304 4.89584974 11.73323895 5.56054688 13.1953125 C8 18.67019281 8 18.67019281 8 22 C8.66 22.33 9.32 22.66 10 23 C9.67 23.66 9.34 24.32 9 25 C9.66 25 10.32 25 11 25 C11.144375 26.11375 11.28875 27.2275 11.4375 28.375 C11.78372035 31.82142047 11.78372035 31.82142047 13 34 C13.26362395 35.48497946 13.48526552 36.97755508 13.68359375 38.47265625 C13.80669922 39.37306641 13.92980469 40.27347656 14.05664062 41.20117188 C14.30690262 43.08134535 14.55691037 44.96155269 14.80664062 46.84179688 C15.41989 51.32518994 16.12076636 55.71481368 17.16015625 60.12109375 C17.43730469 61.40113281 17.71445313 62.68117188 18 64 C17.67 64.33 17.34 64.66 17 65 C16.8537219 67.04770494 16.77257114 69.10012639 16.71875 71.15234375 C16.68136719 72.40337891 16.64398438 73.65441406 16.60546875 74.94335938 C16.57066406 76.26142578 16.53585938 77.57949219 16.5 78.9375 C16.43133965 81.53006414 16.35863264 84.1225253 16.28125 86.71484375 C16.25095703 87.87105225 16.22066406 89.02726074 16.18945312 90.21850586 C16 93 16 93 15 95 C13.51635243 99.4509427 12.2684927 103.97394247 10.9921875 108.48828125 C9.63636034 113.17580565 7.98099519 117.5413813 6 122 C5.649375 123.0725 5.29875 124.145 4.9375 125.25 C4 128 4 128 2 131 C1.34 131 0.68 131 0 131 C-0.020625 131.70125 -0.04125 132.4025 -0.0625 133.125 C-2.35412242 140.15264208 -11.06865591 144.20716773 -17 148 C-16.67 146.35 -16.34 144.7 -16 143 C-15.01 143 -14.02 143 -13 143 C-13 142.34 -13 141.68 -13 141 C-11.1875 138.875 -11.1875 138.875 -9 137 C-8.01 137 -7.02 137 -6 137 C-5.505 134.03 -5.505 134.03 -5 131 C-5.51949219 131.45890625 -6.03898437 131.9178125 -6.57421875 132.390625 C-8.01387505 133.65730966 -9.458084 134.91883435 -10.90625 136.17578125 C-12.51594629 137.57825917 -14.10609236 139.00320005 -15.6875 140.4375 C-18.36919799 142.2494581 -19.8277462 142.36254329 -23 142 C-22.34 141.505 -21.68 141.01 -21 140.5 C-13.45904331 134.5985689 -13.45904331 134.5985689 -9 126.5 C-9 125.675 -9 124.85 -9 124 C-8.34 124 -7.68 124 -7 124 C-6.67 122.35 -6.34 120.7 -6 119 C-4.515 118.505 -4.515 118.505 -3 118 C1.60493454 109.19727452 6.69847109 95.90671578 4 86 C4.99 85.505 4.99 85.505 6 85 C6.07558619 80.85981515 6.12925873 76.72002241 6.16479492 72.5793457 C6.17964771 71.17823268 6.19993556 69.77716405 6.22631836 68.3762207 C6.39258508 59.30327415 5.71520769 51.04254496 3.6496582 42.19165039 C3.06992308 39.34351911 2.87044077 36.89144912 3 34 C2.34 34 1.68 34 1 34 C0.34 29.71 -0.32 25.42 -1 21 C-0.34 21 0.32 21 1 21 C1.33 21.99 1.66 22.98 2 24 C2.99 23.67 3.98 23.34 5 23 C4.44687265 18.97007218 3.8441938 14.97977076 3 11 C2.34 11 1.68 11 1 11 C1 9.68 1 8.36 1 7 C0.34 7 -0.32 7 -1 7 C-2 4 -2 4 -1.0625 1.8125 C-0.5365625 0.9153125 -0.5365625 0.9153125 0 0 Z " fill="#4B122E" transform="translate(195,199)"/>
<path d="M0 0 C5.08784274 1.29645771 8.22109829 3.54911885 11.8125 7.25 C12.32586914 7.77432617 12.83923828 8.29865234 13.36816406 8.83886719 C27.21071503 23.45474502 27.21071503 23.45474502 27.234375 32.421875 C27.15703125 33.60265625 27.0796875 34.7834375 27 36 C27.66 36 28.32 36 29 36 C29 37.32 29 38.64 29 40 C29.66 40 30.32 40 31 40 C32.99785435 44.1205746 33.17835515 47.45194365 33 52 C32.34 52 31.68 52 31 52 C30.67 52.99 30.34 53.98 30 55 C29.67 53.35 29.34 51.7 29 50 C28.01 50 27.02 50 26 50 C25.27174479 48.54348958 24.54352035 47.08696377 23.81542969 45.63037109 C23.18378801 44.36741569 22.55161879 43.104724 21.91894531 41.84228516 C20.36855966 38.74695653 18.82760532 35.64806063 17.3046875 32.5390625 C16.79164063 31.49492187 16.27859375 30.45078125 15.75 29.375 C15.06164062 27.96347656 15.06164062 27.96347656 14.359375 26.5234375 C13.08155088 24.15138467 11.6779982 22.10243304 10 20 C9.9175 21.0725 9.835 22.145 9.75 23.25 C9 27 9 27 7.08203125 28.8671875 C4.58356437 31.42659259 3.94016955 33.4633192 2.9375 36.875 C1.60803061 41.16579729 0.12967536 45.03105957 -2 49 C-2.68528045 50.65910004 -3.35891863 52.32332564 -4 54 C-4.66 54 -5.32 54 -6 54 C-6 54.99 -6 55.98 -6 57 C-6.78375 57.226875 -7.5675 57.45375 -8.375 57.6875 C-11.76844347 59.38422173 -11.63748978 60.51802943 -13 64 C-14.73804627 66.12381787 -16.56648581 68.12925926 -18.44140625 70.1328125 C-20.20955146 72.02004569 -20.20955146 72.02004569 -21 75 C-22.3288556 75.67554793 -23.66277108 76.34118209 -25 77 C-28.51511972 80.80944793 -31.44457486 85.02263955 -33 90 C-33.66 90 -34.32 90 -35 90 C-35 90.66 -35 91.32 -35 92 C-35.99 92.99 -35.99 92.99 -37 94 C-37 94.66 -37 95.32 -37 96 C-40.465 96.99 -40.465 96.99 -44 98 C-43.64912941 91.3773176 -42.07383163 87.78323285 -38 82.625 C-37.50234131 81.97144531 -37.00468262 81.31789063 -36.49194336 80.64453125 C-32.99616003 76.11091104 -29.26025504 71.84379849 -25.3828125 67.6328125 C-9.54101547 50.12892529 -0.01432652 34.18895993 -1 10 C-1.18095954 8.39251528 -1.38275555 6.7868971 -1.625 5.1875 C-1.74875 4.135625 -1.8725 3.08375 -2 2 C-1.34 1.34 -0.68 0.68 0 0 Z " fill="#56172C" transform="translate(167,170)"/>
<path d="M0 0 C2.53846179 3.80769269 3.14699314 7.31441482 4.0625 11.75 C4.23950439 12.6054541 4.41650879 13.4609082 4.59887695 14.34228516 C6.09369316 21.89452194 6.69901381 29.30980278 7 37 C7.11051059 38.64350809 7.22536121 40.28672812 7.34375 41.9296875 C8.09331815 53.00149795 7.82192068 63.48649425 6.328125 74.4765625 C5.97809871 77.16843133 5.6888677 79.86275725 5.40625 82.5625 C2.22969694 111.57583558 -6.83957535 139.88239906 -25 163 C-25.54269531 163.73863281 -26.08539063 164.47726562 -26.64453125 165.23828125 C-30.08996003 169.86588875 -33.66642339 173.70296326 -38.109375 177.3828125 C-39.8309644 178.8554117 -41.29849414 180.38317166 -42.8125 182.0625 C-46.82649528 186.15264153 -51.93741358 188.44446732 -57 191 C-57.82886719 191.44472656 -58.65773437 191.88945312 -59.51171875 192.34765625 C-73.46755227 199.69638018 -87.32532388 202.44855989 -103 202 C-103 201.34 -103 200.68 -103 200 C-103.66 199.67 -104.32 199.34 -105 199 C-104.32453125 198.93941406 -103.6490625 198.87882813 -102.953125 198.81640625 C-102.06109375 198.73261719 -101.1690625 198.64882813 -100.25 198.5625 C-99.36828125 198.48128906 -98.4865625 198.40007812 -97.578125 198.31640625 C-95.30104957 198.03694699 -93.2183179 197.55912521 -91 197 C-89.7625 196.9175 -88.525 196.835 -87.25 196.75 C-71.08107068 195.01856605 -56.13141748 187.52488002 -44 177 C-43.31292969 176.43410156 -42.62585938 175.86820313 -41.91796875 175.28515625 C-34.73699336 169.26560094 -27.61355858 162.22416964 -23 154 C-23 153.01 -23 152.02 -23 151 C-22.04788888 148.97676387 -21.05226728 146.97300116 -20 145 C-19.34 145.33 -18.68 145.66 -18 146 C-9.94380922 130.17406079 -4.27090283 114.47163208 -1 97 C-1.66 97 -2.32 97 -3 97 C-3 94.69 -3 92.38 -3 90 C-2.01 89.67 -1.02 89.34 0 89 C4.30608725 78.5976544 3.23438149 64.92800046 3.25 53.9375 C3.25200409 53.24589783 3.25400818 52.55429565 3.256073 51.84173584 C3.265098 39.00228259 2.12505402 26.46471629 0.36767578 13.74316406 C-0.00757839 10.94345894 -0.35034417 8.14364054 -0.66015625 5.3359375 C-0.79562866 4.11849854 -0.79562866 4.11849854 -0.93383789 2.87646484 C-0.96658813 1.94761475 -0.96658813 1.94761475 -1 1 C-0.67 0.67 -0.34 0.34 0 0 Z M-1 91 C0 93 0 93 0 93 Z " fill="#350C26" transform="translate(245,163)"/>
<path d="M0 0 C0.33 0 0.66 0 1 0 C1.64957631 3.49931587 2.29397258 6.99956712 2.9375 10.5 C3.11990234 11.48226562 3.30230469 12.46453125 3.49023438 13.4765625 C6.66267339 30.7807753 7.36193986 48.17838444 6.75 65.75 C6.71060303 67.22255249 6.71060303 67.22255249 6.67041016 68.72485352 C6.62964355 69.63549561 6.58887695 70.5461377 6.546875 71.484375 C6.51432617 72.28584961 6.48177734 73.08732422 6.44824219 73.91308594 C5.89997319 76.46570215 4.92642062 77.30054361 3 79 C2.01371583 81.03077684 2.01371583 81.03077684 1.3125 83.1875 C1.06113281 83.90292969 0.80976563 84.61835938 0.55078125 85.35546875 C0.36902344 85.89816406 0.18726563 86.44085938 0 87 C-1.32 87 -2.64 87 -4 87 C-4.11742869 79.14532547 -3.90020605 71.40931111 -3.21875 63.58203125 C-2.65669014 54.37830106 -3.24055074 45.3089129 -3.9375 36.125 C-4.02451172 34.93519531 -4.11152344 33.74539062 -4.20117188 32.51953125 C-4.75521919 25.00911205 -5.36049839 17.50360031 -6 10 C-5.01 10.33 -4.02 10.66 -3 11 C-3.02320313 11.61488281 -3.04640625 12.22976562 -3.0703125 12.86328125 C-3.08835938 13.67152344 -3.10640625 14.47976562 -3.125 15.3125 C-3.15980469 16.51326172 -3.15980469 16.51326172 -3.1953125 17.73828125 C-3.15817322 20.28388576 -3.15817322 20.28388576 -1 23 C0.67713917 18.75782446 1.0144362 16.39589018 0 12 C0.4375 9.1875 0.4375 9.1875 1 7 C0.34 6.67 -0.32 6.34 -1 6 C-0.67 4.02 -0.34 2.04 0 0 Z " fill="#45112A" transform="translate(236,162)"/>
<path d="M0 0 C0.67807548 18.20758236 -2.51933736 34.70787629 -8 52 C-8.68277128 54.32912655 -9.34319744 56.6633568 -10 59 C-10.66 59 -11.32 59 -12 59 C-12.35964844 60.25296875 -12.35964844 60.25296875 -12.7265625 61.53125 C-14.19339197 65.5267855 -16.14520669 68.89298141 -18.375 72.5 C-18.76171875 73.13808594 -19.1484375 73.77617187 -19.546875 74.43359375 C-23.24899486 80.50854883 -26.88639653 86.00531754 -32 91 C-33.80178613 93.12793726 -35.58742762 95.26651208 -37.3515625 97.42578125 C-39 99 -39 99 -42 99 C-40.0539496 96.0114226 -38.15345887 93.18505334 -35.875 90.4375 C-33.92082383 88.15976129 -33.92082383 88.15976129 -33.1875 85.6875 C-31.98010808 82.95498144 -30.75284098 81.49502694 -28.75 79.3125 C-13.92277581 62.71212323 -6.63949215 36.89775154 -4.5078125 15.12890625 C-4.38043701 13.83279419 -4.38043701 13.83279419 -4.25048828 12.51049805 C-4.08500861 10.76941318 -3.92954176 9.02734426 -3.78466797 7.28442383 C-3.59145375 5.18221068 -3.30386761 3.08908983 -3 1 C-1 0 -1 0 0 0 Z " fill="#230724" transform="translate(270,283)"/>
<path d="M0 0 C0.66 0 1.32 0 2 0 C6.41177087 11.19774774 4.94552268 24.00024127 0.5078125 34.9296875 C-1.29621891 38.60318151 -3.3283893 41.94522579 -5.765625 45.23046875 C-7.18782467 47.09113072 -7.18782467 47.09113072 -8 50 C-9.10756421 51.14217559 -10.22273641 52.27759973 -11.3671875 53.3828125 C-27.05020871 68.91575696 -40.37769097 87.17906111 -48 108 C-49.4407588 105.6905484 -50.04878176 104.44818241 -49.75 101.703125 C-48.10566377 96.32477526 -46.12111506 92.36453816 -42.55078125 88.0234375 C-40.34910779 85.15072502 -38.7884017 82.01593881 -37.17578125 78.78515625 C-36 77 -36 77 -33 76 C-31.87914688 73.6569191 -31.87914688 73.6569191 -31 71 C-29.44193286 67.16475781 -27.09840684 64.72954888 -24 62 C-21.6875 61.1875 -21.6875 61.1875 -20 61 C-19.87625 59.824375 -19.87625 59.824375 -19.75 58.625 C-19.5025 57.75875 -19.255 56.8925 -19 56 C-17.66666667 55.33333333 -16.33333333 54.66666667 -15 54 C-14.855625 53.2575 -14.71125 52.515 -14.5625 51.75 C-13.77386911 47.89447119 -11.56413206 45.93043664 -9 43 C-8.46375 42.05125 -7.9275 41.1025 -7.375 40.125 C-6.92125 39.42375 -6.4675 38.7225 -6 38 C-5.01 38 -4.02 38 -3 38 C-2.814375 36.2984375 -2.814375 36.2984375 -2.625 34.5625 C-2.27365944 31.66644997 -1.74742635 28.94179332 -1 26.125 C0.12266975 21.33044047 0.40436346 16.52655891 0.6875 11.625 C0.73583984 10.82723145 0.78417969 10.02946289 0.83398438 9.20751953 C1.00353913 5.83294889 1.07789987 3.23369962 0 0 Z " fill="#410D1D" transform="translate(157,172)"/>
<path d="M0 0 C2.88368062 3.8449075 4.23296735 7.13956147 5.625 11.625 C7.07070923 16.4069529 7.07070923 16.4069529 9 21 C9.33 16.05 9.66 11.1 10 6 C10.33 6 10.66 6 11 6 C12.15310653 10.3241495 12.04246618 14.45580402 11.9375 18.890625 C11.75827938 20.98689754 11.75827938 20.98689754 13 22 C13.04080783 23.99958364 13.04254356 26.00045254 13 28 C12.01 28.33 11.02 28.66 10 29 C9.34 28.34 8.68 27.68 8 27 C8 25.68 8 24.36 8 23 C7.01 23.33 6.02 23.66 5 24 C5.73361476 30.50004094 5.73361476 30.50004094 9.875 35.25 C11.421875 36.11625 11.421875 36.11625 13 37 C13.680625 37.886875 14.36125 38.77375 15.0625 39.6875 C16.82472262 42.22386494 16.82472262 42.22386494 19.75 42.8125 C20.86375 42.9053125 20.86375 42.9053125 22 43 C22 42.34 22 41.68 22 41 C21.34 41 20.68 41 20 41 C19.46706165 39.25364835 18.94909337 37.50272348 18.4375 35.75 C18.14746094 34.77546875 17.85742188 33.8009375 17.55859375 32.796875 C16.9999487 29.99974316 16.94212329 28.61289766 18 26 C18.66 25.34 19.32 24.68 20 24 C20.7269725 27.28783768 21.42836941 30.58061146 22.125 33.875 C22.33253906 34.81214844 22.54007813 35.74929688 22.75390625 36.71484375 C22.94082031 37.61074219 23.12773438 38.50664062 23.3203125 39.4296875 C23.49836426 40.25710449 23.67641602 41.08452148 23.85986328 41.93701172 C23.92923096 42.95819092 23.92923096 42.95819092 24 44 C23.34 44.66 22.68 45.32 22 46 C18.40444126 45.90012337 16.49400546 44.73075851 13.875 42.4375 C11.24682511 39.67665737 11.24682511 39.67665737 8 40 C6.359375 38.828125 6.359375 38.828125 4.75 37.25 C4.20859375 36.73953125 3.6671875 36.2290625 3.109375 35.703125 C2.74328125 35.14109375 2.3771875 34.5790625 2 34 C2.25136719 33.08927734 2.25136719 33.08927734 2.5078125 32.16015625 C3.26107209 28.85418359 1.7408502 27.08783941 0.125 24.1875 C-2.28895723 19.62221515 -3.76621717 16.14322223 -4 11 C-3.34 11 -2.68 11 -2 11 C0.125 17.75 0.125 17.75 -1 20 C0.32 20 1.64 20 3 20 C3.08004482 16.4780279 3.04005702 13.38018531 2 10 C1.34 10 0.68 10 0 10 C0 6.7 0 3.4 0 0 Z M10 23 C11 25 11 25 11 25 Z M5 33 C6 35 6 35 6 35 Z " fill="#50142A" transform="translate(84,295)"/>
<path d="M0 0 C0.12375 0.598125 0.2475 1.19625 0.375 1.8125 C0.95475985 4.26231348 0.95475985 4.26231348 3 7 C3.99 5.02 4.98 3.04 6 1 C6.99 1.33 7.98 1.66 9 2 C8.57388649 3.75280733 8.13360733 5.50217435 7.6875 7.25 C7.44386719 8.22453125 7.20023438 9.1990625 6.94921875 10.203125 C5.99478552 13.01536448 5.01145917 14.8282446 3 17 C2.34 17 1.68 17 1 17 C0.979375 17.70125 0.95875 18.4025 0.9375 19.125 C-1.35412242 26.15264208 -10.06865591 30.20716773 -16 34 C-15.67 32.35 -15.34 30.7 -15 29 C-14.01 29 -13.02 29 -12 29 C-12 28.34 -12 27.68 -12 27 C-10.1875 24.875 -10.1875 24.875 -8 23 C-7.01 23 -6.02 23 -5 23 C-4.67 21.02 -4.34 19.04 -4 17 C-4.51949219 17.45890625 -5.03898437 17.9178125 -5.57421875 18.390625 C-7.01387505 19.65730966 -8.458084 20.91883435 -9.90625 22.17578125 C-11.51594629 23.57825917 -13.10609236 25.00320005 -14.6875 26.4375 C-17.36919799 28.2494581 -18.8277462 28.36254329 -22 28 C-21.34 27.505 -20.68 27.01 -20 26.5 C-12.45904331 20.5985689 -12.45904331 20.5985689 -8 12.5 C-8 11.675 -8 10.85 -8 10 C-7.34 10 -6.68 10 -6 10 C-5.67 8.35 -5.34 6.7 -5 5 C-4.01 4.67 -3.02 4.34 -2 4 C-0.79117904 1.99983534 -0.79117904 1.99983534 0 0 Z " fill="#360A28" transform="translate(194,313)"/>
<path d="M0 0 C0.99 0 1.98 0 3 0 C4.4096278 8.78160024 4.10646414 16.98031709 0 25 C-0.4154465 26.40533756 -0.79200436 27.82287585 -1.125 29.25 C-1.41375 30.4875 -1.7025 31.725 -2 33 C-2.99 32.67 -3.98 32.34 -5 32 C-4.67 29.36 -4.34 26.72 -4 24 C-4.99 24.33 -5.98 24.66 -7 25 C-8.02281518 27.09719872 -8.02281518 27.09719872 -8.6875 29.5625 C-9.06455078 30.80193359 -9.06455078 30.80193359 -9.44921875 32.06640625 C-9.63097656 32.70449219 -9.81273437 33.34257812 -10 34 C-12.49118953 30.2632157 -12.2065226 28.25548181 -12.125 23.8125 C-12.10695312 22.54019531 -12.08890625 21.26789063 -12.0703125 19.95703125 C-12.04710937 18.98121094 -12.02390625 18.00539063 -12 17 C-11.67 17 -11.34 17 -11 17 C-10.67 18.98 -10.34 20.96 -10 23 C-9.01 17.39 -8.02 11.78 -7 6 C-6.34 7.32 -5.68 8.64 -5 10 C-4.34 10 -3.68 10 -3 10 C-1.11608215 6.73454239 -0.50712033 3.71888239 0 0 Z M2 8 C3 10 3 10 3 10 Z " fill="#431132" transform="translate(238,239)"/>
<path d="M0 0 C2.53846179 3.80769269 3.14699314 7.31441482 4.0625 11.75 C4.23950439 12.6054541 4.41650879 13.4609082 4.59887695 14.34228516 C6.09369316 21.89452194 6.69901381 29.30980278 7 37 C7.11051059 38.64350809 7.22536121 40.28672812 7.34375 41.9296875 C8.1021501 53.17633333 7.74692136 63.83115692 6.25976562 75 C5.90599666 77.72375504 5.63611327 80.45349051 5.375 83.1875 C5.25125 84.445625 5.1275 85.70375 5 87 C3.3437614 84.09636206 2.75893679 82.0698442 2.82055664 78.73583984 C2.83026489 77.89824127 2.83997314 77.0606427 2.84997559 76.19766235 C2.86983521 75.29454315 2.88969482 74.39142395 2.91015625 73.4609375 C2.93300345 71.51009843 2.95519496 69.55925159 2.97680664 67.60839844 C2.99131866 66.58935425 3.00583069 65.57031006 3.02078247 64.52038574 C3.2492206 47.29678615 2.97273313 30.57724575 0.36767578 13.51757812 C-0.02736968 10.81259217 -0.36106568 8.10788444 -0.66015625 5.390625 C-0.75047119 4.57110352 -0.84078613 3.75158203 -0.93383789 2.90722656 C-0.95567139 2.2778418 -0.97750488 1.64845703 -1 1 C-0.67 0.67 -0.34 0.34 0 0 Z " fill="#48122D" transform="translate(245,163)"/>
<path d="M0 0 C4.95886352 0.41323863 9.39482358 1.08129139 14.15625 2.5234375 C21.8449046 4.47976771 29.38059425 4.41607887 37.26171875 4.33618164 C39.73210723 4.31267029 42.20140324 4.3156325 44.671875 4.32226562 C54.92035059 4.30271332 64.86808435 3.53065173 75 2 C74.67 3.32 74.34 4.64 74 6 C49.55084985 11.02647199 22.68896079 10.20674072 -1 2 C-0.67 1.34 -0.34 0.68 0 0 Z " fill="#390F2B" transform="translate(98,405)"/>
<path d="M0 0 C0.99 0 1.98 0 3 0 C1.25494006 18.14862341 -11.36072902 33.21728355 -23.39941406 45.92114258 C-27.23838755 50.0289912 -30.68088512 54.33842521 -34 58.875 C-34.44456543 59.48126221 -34.88913086 60.08752441 -35.34716797 60.7121582 C-38.18716638 64.66829661 -40.64523042 68.737431 -43 73 C-43.66 71.68 -44.32 70.36 -45 69 C-43.515 68.505 -43.515 68.505 -42 68 C-42.33 67.01 -42.66 66.02 -43 65 C-41.515 64.505 -41.515 64.505 -40 64 C-40 63.34 -40 62.68 -40 62 C-39.34 62 -38.68 62 -38 62 C-37.91492188 61.28457031 -37.82984375 60.56914062 -37.7421875 59.83203125 C-36.84021574 56.39029691 -35.35580498 54.4453633 -33.125 51.6875 C-32.42632812 50.80449219 -31.72765625 49.92148438 -31.0078125 49.01171875 C-30.34523437 48.34785156 -29.68265625 47.68398437 -29 47 C-28.01 47 -27.02 47 -26 47 C-25.91363281 46.443125 -25.82726562 45.88625 -25.73828125 45.3125 C-24.77795802 42.30450341 -23.18839662 40.43522854 -21.1875 38 C-20.50042969 37.154375 -19.81335938 36.30875 -19.10546875 35.4375 C-17.14947073 33.17304218 -15.21832095 31.00904539 -13 29 C-12.34 29 -11.68 29 -11 29 C-11 28.01 -11 27.02 -11 26 C-10.34 26 -9.68 26 -9 26 C-8.9175 25.360625 -8.835 24.72125 -8.75 24.0625 C-8.10290609 21.42019986 -7.3216511 19.38370825 -6.1875 16.9375 C-3.65549915 11.4468608 -1.83077628 5.75525946 0 0 Z " fill="#380B1B" transform="translate(172,198)"/>
<path d="M0 0 C0.33 0 0.66 0 1 0 C1.52773343 2.64463022 2.04747257 5.29039393 2.5625 7.9375 C2.71396484 8.69224609 2.86542969 9.44699219 3.02148438 10.22460938 C3.39117799 12.14185767 3.70042238 14.0705525 4 16 C3.67 16.33 3.34 16.66 3 17 C2.8537219 19.04770494 2.77257114 21.10012639 2.71875 23.15234375 C2.68136719 24.40337891 2.64398438 25.65441406 2.60546875 26.94335938 C2.57066406 28.26142578 2.53585938 29.57949219 2.5 30.9375 C2.43133965 33.53006414 2.35863264 36.1225253 2.28125 38.71484375 C2.23581055 40.44915649 2.23581055 40.44915649 2.18945312 42.21850586 C2 45 2 45 1 47 C0.22318274 49.33045179 -0.50050496 51.65556819 -1.19140625 54.01171875 C-1.41376953 54.76904297 -1.63613281 55.52636719 -1.86523438 56.30664062 C-2.09533203 57.09232422 -2.32542969 57.87800781 -2.5625 58.6875 C-2.91344727 59.88342773 -2.91344727 59.88342773 -3.27148438 61.10351562 C-3.84814443 63.06886724 -4.42413666 65.03441479 -5 67 C-7.43287087 63.3506937 -7.06066944 62.56687131 -6.3125 58.375 C-6.11398438 57.20195312 -5.91546875 56.02890625 -5.7109375 54.8203125 C-5.24000805 52.28971361 -4.7454782 49.763384 -4.2265625 47.2421875 C-2.05150564 36.41673423 -1.49798697 25.77901987 -1.2109375 14.75 C-1.07056318 9.78240055 -0.62639093 4.92897781 0 0 Z " fill="#2C0820" transform="translate(209,247)"/>
<path d="M0 0 C0.33 0 0.66 0 1 0 C1.02336256 7.58123037 1.04103521 15.16245691 1.05181217 22.74371529 C1.05698942 26.26551731 1.06399101 29.78729437 1.07543945 33.30908203 C1.08857224 37.3753277 1.09327077 41.44154791 1.09765625 45.5078125 C1.10281754 46.74798126 1.10797882 47.98815002 1.11329651 49.26589966 C1.11381855 57.5611303 0.69705798 65.73498985 0 74 C-0.33 74 -0.66 74 -1 74 C-2.3443472 56.01935618 -2.09820732 38.01726626 -2 20 C-1.67 20 -1.34 20 -1 20 C-0.67 13.4 -0.34 6.8 0 0 Z " fill="#461431" transform="translate(269,165)"/>
<path d="M0 0 C2.0625 0.4375 2.0625 0.4375 4 1 C-8.96839856 7.96980011 -23.34639327 10.93203152 -38 10 C-38 9.34 -38 8.68 -38 8 C-38.66 7.67 -39.32 7.34 -40 7 C-38.98679688 6.90912109 -38.98679688 6.90912109 -37.953125 6.81640625 C-37.06109375 6.73261719 -36.1690625 6.64882813 -35.25 6.5625 C-34.36828125 6.48128906 -33.4865625 6.40007812 -32.578125 6.31640625 C-30.30033199 6.03685893 -28.21713546 5.5679138 -26 5 C-24.7625 4.87625 -23.525 4.7525 -22.25 4.625 C-17.62176076 4.14353887 -13.07259589 3.34658926 -8.5 2.5 C-7.78102539 2.36932129 -7.06205078 2.23864258 -6.32128906 2.10400391 C-2.8686409 1.69134396 -2.8686409 1.69134396 0 0 Z " fill="#3A1029" transform="translate(180,355)"/>
<path d="M0 0 C2.31 0 4.62 0 7 0 C7.0251577 4.42504534 7.04307066 8.85005022 7.05493164 13.27514648 C7.05988838 14.77320076 7.06665574 16.27125039 7.07543945 17.76928711 C7.13323303 27.89676176 6.81950418 37.90263673 6 48 C5.67 48 5.34 48 5 48 C3.77968102 43.24962333 3.87276339 38.62833736 3.90234375 33.76171875 C3.90446617 32.44056816 3.90446617 32.44056816 3.90663147 31.09272766 C3.91221063 28.29094997 3.92475929 25.48925338 3.9375 22.6875 C3.94251769 20.78320428 3.94708013 18.87890731 3.95117188 16.97460938 C3.96217323 12.31637519 3.97942351 7.65820133 4 3 C2.68 2.34 1.36 1.68 0 1 C0 0.67 0 0.34 0 0 Z " fill="#6C2635" transform="translate(263,45)"/>
<path d="M0 0 C0.99 0.33 1.98 0.66 3 1 C2.80664062 1.556875 2.61328125 2.11375 2.4140625 2.6875 C1.08594985 6.57979053 -0.1426535 10.42696928 -1.0625 14.4375 C-2 18 -2 18 -4 20 C-4.474375 21.175625 -4.94875 22.35125 -5.4375 23.5625 C-6.2109375 25.2640625 -6.2109375 25.2640625 -7 27 C-10.13349732 28.04449911 -10.98968256 27.93423645 -14 27 C-13.34 27 -12.68 27 -12 27 C-11.62875 25.7625 -11.2575 24.525 -10.875 23.25 C-8.86571822 17.19345065 -5.929149 11.65234222 -3 6 C-1.99721546 4.0013947 -0.9964397 2.00177619 0 0 Z " fill="#31072A" transform="translate(228,285)"/>
<path d="M0 0 C0.33 0 0.66 0 1 0 C1.7269725 3.28783768 2.42836941 6.58061146 3.125 9.875 C3.33253906 10.81214844 3.54007813 11.74929688 3.75390625 12.71484375 C3.94082031 13.61074219 4.12773438 14.50664062 4.3203125 15.4296875 C4.58739014 16.67081299 4.58739014 16.67081299 4.85986328 17.93701172 C4.92923096 18.95819092 4.92923096 18.95819092 5 20 C4.34 20.66 3.68 21.32 3 22 C-0.59555874 21.90012337 -2.50599454 20.73075851 -5.125 18.4375 C-7.75317489 15.67665737 -7.75317489 15.67665737 -11 16 C-12.60546875 14.79296875 -12.60546875 14.79296875 -14.1875 13.1875 C-14.71730469 12.66542969 -15.24710937 12.14335937 -15.79296875 11.60546875 C-17 10 -17 10 -17 7 C-11.03625953 8.98791349 -7.61257242 11.95199885 -3.5 16.75 C-1.4672515 18.44395709 0.41794457 18.65107359 3 19 C3 18.34 3 17.68 3 17 C2.34 17 1.68 17 1 17 C0.46706165 15.25364835 -0.05090663 13.50272348 -0.5625 11.75 C-0.85253906 10.77546875 -1.14257812 9.8009375 -1.44140625 8.796875 C-2.16248757 5.18642587 -1.61315861 3.22631722 0 0 Z " fill="#350C1F" transform="translate(103,319)"/>
<path d="M0 0 C0.66 0.33 1.32 0.66 2 1 C1.67 1.33 1.34 1.66 1 2 C0.91125865 5.10251201 0.88481545 8.1826812 0.90234375 11.28515625 C0.9037587 12.21597519 0.90517365 13.14679413 0.90663147 14.1058197 C0.91224828 17.09141191 0.9248036 20.07693029 0.9375 23.0625 C0.94251284 25.08137913 0.94707612 27.10025943 0.95117188 29.11914062 C0.96222317 34.07945572 0.97949905 39.03971532 1 44 C0.67 44 0.34 44 0 44 C-0.33 46.64 -0.66 49.28 -1 52 C-1.33 52 -1.66 52 -2 52 C-2 35.17 -2 18.34 -2 1 C-1.34 0.67 -0.68 0.34 0 0 Z " fill="#792A38" transform="translate(216,45)"/>
<path d="M0 0 C0.66 0 1.32 0 2 0 C2 0.66 2 1.32 2 2 C2.99 2.33 3.98 2.66 5 3 C8.84100908 7.65576858 10.00498165 12.10844395 11 18 C11.66 18 12.32 18 13 18 C14.90682318 21.26883974 15.6633948 24.53213611 16.4375 28.1953125 C16.91749919 30.22727391 16.91749919 30.22727391 19 32 C21.53050398 39.87267905 21.53050398 39.87267905 20 43.125 C19.67 43.74375 19.34 44.3625 19 45 C18.60941406 43.55947266 18.60941406 43.55947266 18.2109375 42.08984375 C16.8978572 37.50098579 15.27489076 33.03925101 13.625 28.5625 C13.18800781 27.35110352 13.18800781 27.35110352 12.7421875 26.11523438 C10.81666007 20.87492838 8.58077276 15.95121822 6 11 C5.01 11 4.02 11 3 11 C2.814375 9.948125 2.814375 9.948125 2.625 8.875 C1.96161655 5.82343613 1.02788045 2.94659062 0 0 Z " fill="#420C24" transform="translate(194,186)"/>
<path d="M0 0 C0.33 0 0.66 0 1 0 C0.96777344 0.77601562 0.93554688 1.55203125 0.90234375 2.3515625 C1.01623424 12.95603294 5.11736299 18.69391766 11 27 C12.77473121 29.94755857 14.39414944 32.95826116 16 36 C16.41507813 36.72058594 16.83015625 37.44117188 17.2578125 38.18359375 C17.84175781 39.23740234 17.84175781 39.23740234 18.4375 40.3125 C18.78683594 40.92738281 19.13617188 41.54226562 19.49609375 42.17578125 C20.19322924 44.69951979 19.21949097 45.77027982 18 48 C17.46890625 46.84242188 16.9378125 45.68484375 16.390625 44.4921875 C15.67734476 42.95300382 14.96378842 41.41394808 14.25 39.875 C13.90195313 39.11445312 13.55390625 38.35390625 13.1953125 37.5703125 C10.564567 31.91908143 7.82729952 26.82729952 3.375 22.375 C1.07404699 20.07404699 0.05292023 19.00976253 -1 16 C-0.98310491 13.19541585 -0.87078478 10.5322837 -0.625 7.75 C-0.56828125 7.00492187 -0.5115625 6.25984375 -0.453125 5.4921875 C-0.31223742 3.66064892 -0.15748116 1.83018648 0 0 Z " fill="#5E1C2A" transform="translate(215,85)"/>
<path d="M0 0 C0.66 0.33 1.32 0.66 2 1 C0.67084608 4.55073976 -0.93936642 7.68302799 -2.875 10.9375 C-5.98890765 16.49101413 -7.57681041 22.05396895 -9.04296875 28.2265625 C-9.35878906 29.14179688 -9.67460938 30.05703125 -10 31 C-10.99 31.33 -11.98 31.66 -13 32 C-13.12375 32.94875 -13.2475 33.8975 -13.375 34.875 C-14 38 -14 38 -16 40 C-14.87059616 31.63412237 -12.44659908 24.36248591 -9.125 16.625 C-8.69058594 15.57183594 -8.25617188 14.51867187 -7.80859375 13.43359375 C-5.70130617 8.44065111 -3.7791389 3.99006758 0 0 Z " fill="#501222" transform="translate(112,252)"/>
<path d="M0 0 C2 2 2 2 2.24291992 4.31225586 C2.23881104 5.27010986 2.23470215 6.22796387 2.23046875 7.21484375 C2.22917969 8.28557129 2.22789062 9.35629883 2.2265625 10.45947266 C2.21367187 11.60722168 2.20078125 12.7549707 2.1875 13.9375 C2.18105469 15.10071777 2.17460937 16.26393555 2.16796875 17.46240234 C2.08129636 27.32815824 1.66406619 37.15759037 1 47 C-1.3807604 43.4288594 -1.24557691 41.87263241 -1.23046875 37.63671875 C-1.22853516 36.35603516 -1.22660156 35.07535156 -1.22460938 33.75585938 C-1.21840576 33.08578857 -1.21220215 32.41571777 -1.20581055 31.7253418 C-1.18790864 29.73297913 -1.1865347 27.74048972 -1.18554688 25.74804688 C-1.14689212 17.11944579 -0.72631822 8.59629797 0 0 Z " fill="#2E0D25" transform="translate(269,225)"/>
<path d="M0 0 C-0.66 0.33 -1.32 0.66 -2 1 C-2.66 0.67 -3.32 0.34 -4 0 C-4.33 0.66 -4.66 1.32 -5 2 C-5.66 1.835 -6.32 1.67 -7 1.5 C-14.83246413 0.19458931 -19.24999951 1.11449552 -26 5 C-26.7115625 5.33 -27.423125 5.66 -28.15625 6 C-30.49228445 7.26700174 -31.0309818 8.5774545 -32 11 C-32.33 10.34 -32.66 9.68 -33 9 C-24.86791983 -3.6909736 -13.73778862 -6.22088541 0 0 Z " fill="#581F29" transform="translate(63,293)"/>
<path d="M0 0 C0.56589844 0.28617187 1.13179688 0.57234375 1.71484375 0.8671875 C3.98206314 1.99110822 6.26082511 3.0734734 8.5625 4.125 C9.32691406 4.47820312 10.09132813 4.83140625 10.87890625 5.1953125 C13.08938838 6.17735307 13.08938838 6.17735307 16 6 C17.01101827 6.98885897 18.00987583 7.99022076 19 9 C21.03077684 9.98628417 21.03077684 9.98628417 23.1875 10.6875 C24.26064453 11.06455078 24.26064453 11.06455078 25.35546875 11.44921875 C25.89816406 11.63097656 26.44085938 11.81273437 27 12 C24.54067097 13.60802282 23.26514489 14.02340642 20.30078125 13.76171875 C16.53050602 12.89165524 13.24951709 11.4740107 9.8125 9.75 C9.19697266 9.46253906 8.58144531 9.17507813 7.94726562 8.87890625 C3.94795611 6.8944168 1.87356138 5.06051848 0 1 C0 0.67 0 0.34 0 0 Z " fill="#4D1429" transform="translate(99,347)"/>
<path d="M0 0 C1.17294636 3.51883908 0.74780149 4.40766339 -0.3125 7.875 C-2.78457782 17.06024326 -3.26004 26.54657925 -4 36 C-4.33 36 -4.66 36 -5 36 C-5.28676632 31.85586599 -5.52266305 27.71028498 -5.75 23.5625 C-5.83121094 22.39783203 -5.91242188 21.23316406 -5.99609375 20.03320312 C-6.35734442 12.90853713 -6.11145717 7.05649268 -2 1 C-1.34 0.67 -0.68 0.34 0 0 Z " fill="#491123" transform="translate(107,280)"/>
<path d="M0 0 C4.04905077 0.61438979 7.1840504 1.93407589 10.8125 3.8125 C11.86179687 4.35003906 12.91109375 4.88757813 13.9921875 5.44140625 C15.48105469 6.21291016 15.48105469 6.21291016 17 7 C21.26942588 9.17670729 25.50646008 11.31492253 30 13 C30 13.66 30 14.32 30 15 C24.61834639 14.42187607 20.37553976 12.56502531 15.5625 10.25 C14.83740234 9.91484375 14.11230469 9.5796875 13.36523438 9.234375 C8.50672913 6.92953154 4.25459571 4.29605043 0 1 C0 0.67 0 0.34 0 0 Z " fill="#45122B" transform="translate(67,391)"/>
<path d="M0 0 C0.66 0 1.32 0 2 0 C1.855625 0.57363281 1.71125 1.14726563 1.5625 1.73828125 C-0.48902644 11.12686405 -0.17817339 20.44792633 0 30 C-0.33 29.34 -0.66 28.68 -1 28 C-1.66 28 -2.32 28 -3 28 C-3.22786458 26.046875 -3.45572917 24.09375 -3.68359375 22.140625 C-3.94971592 20.00341698 -3.94971592 20.00341698 -4.58203125 18.00390625 C-5.82810709 12.02972954 -2.48520157 5.30929427 0 0 Z " fill="#4B191D" transform="translate(112,126)"/>
<path d="M0 0 C0.99 0.33 1.98 0.66 3 1 C3.16781295 3.60409745 3.33429651 6.2082682 3.5 8.8125 C3.54769531 9.55048828 3.59539062 10.28847656 3.64453125 11.04882812 C4.23007553 20.29206278 4.23007553 20.29206278 2 25 C1.34 25.33 0.68 25.66 0 26 C-0.92703807 21.49528167 -0.9687284 17.57383088 -0.5625 13 C-0.18524773 8.64488524 0.05998598 4.37231157 0 0 Z " fill="#7B2C36" transform="translate(204,46)"/>
<path d="M0 0 C3.31774644 3.31774644 4.68082019 7.77865362 6.5625 12.03125 C8.16626566 15.34337472 9.90175083 16.90654347 12.5625 19.4375 C15 22 15 22 16 25 C15.01 25 14.02 25 13 25 C12.67 24.34 12.34 23.68 12 23 C11.34 23.66 10.68 24.32 10 25 C4.71373208 17.13887095 4.71373208 17.13887095 4 12 C3.01614844 9.61064621 2.28712551 8.2445884 0.3125 6.5625 C-0.120625 6.046875 -0.55375 5.53125 -1 5 C-0.6875 2.3125 -0.6875 2.3125 0 0 Z " fill="#511928" transform="translate(74,312)"/>
<path d="M0 0 C3.29586465 3.29586465 4.124377 7.76022257 5.5625 12.125 C5.87896484 13.05054688 6.19542969 13.97609375 6.52148438 14.9296875 C8.31458043 20.32039667 9.51369251 25.33751549 10 31 C9.01 31.33 8.02 31.66 7 32 C7.33 29.69 7.66 27.38 8 25 C7.34 25 6.68 25 6 25 C5.87625 24.43410156 5.7525 23.86820313 5.625 23.28515625 C4.96264334 20.86341472 4.02614374 18.72746049 3 16.4375 C0.76558467 11.00528012 0.22174131 5.83179651 0 0 Z " fill="#2E0917" transform="translate(213,203)"/>
<path d="M0 0 C0.33 0 0.66 0 1 0 C1 2.31 1 4.62 1 7 C1.33 7 1.66 7 2 7 C2 16.24 2 25.48 2 35 C1.01 34.67 0.02 34.34 -1 34 C-0.99476318 33.32420898 -0.98952637 32.64841797 -0.98413086 31.95214844 C-0.96331993 28.88477511 -0.95032671 25.81741667 -0.9375 22.75 C-0.92912109 21.68652344 -0.92074219 20.62304688 -0.91210938 19.52734375 C-0.90888672 18.50253906 -0.90566406 17.47773438 -0.90234375 16.421875 C-0.89710693 15.47924805 -0.89187012 14.53662109 -0.88647461 13.56542969 C-0.90513605 11.05056606 -0.90513605 11.05056606 -1.56469727 8.89550781 C-2.29303159 5.72400601 -0.98675919 3.01832223 0 0 Z " fill="#3C0A2C" transform="translate(218,247)"/>
<path d="M0 0 C2.89852365 1.31307372 4.98277217 2.72684638 7.234375 4.96875 C8.09482422 5.82533203 8.09482422 5.82533203 8.97265625 6.69921875 C9.85244141 7.59060547 9.85244141 7.59060547 10.75 8.5 C11.35199219 9.09425781 11.95398438 9.68851562 12.57421875 10.30078125 C13.14269531 10.87183594 13.71117187 11.44289063 14.296875 12.03125 C14.81604492 12.55267578 15.33521484 13.07410156 15.87011719 13.61132812 C17 15 17 15 17 17 C17.99 17.33 18.98 17.66 20 18 C20 18.66 20 19.32 20 20 C11.94686882 16.31195099 5.31344132 8.938563 0 2 C0 1.34 0 0.68 0 0 Z " fill="#4C1428" transform="translate(39,365)"/>
<path d="M0 0 C0.99 0 1.98 0 3 0 C4.18982084 7.41226226 3.67959957 13.69860023 2 21 C1.34 20.67 0.68 20.34 0 20 C-0.44921875 17.05078125 -0.44921875 17.05078125 -0.6875 13.3125 C-0.81705078 11.48138672 -0.81705078 11.48138672 -0.94921875 9.61328125 C-0.99650108 6.24896166 -0.67172666 3.28792521 0 0 Z M2 8 C3 10 3 10 3 10 Z " fill="#27081E" transform="translate(238,239)"/>
<path d="M0 0 C1.98 0.495 1.98 0.495 4 1 C6.125 7.625 6.125 7.625 5 11 C5 11.99 5 12.98 5 14 C5.99 14.33 6.98 14.66 8 15 C8.125 17.875 8.125 17.875 8 21 C7.34 21.66 6.68 22.32 6 23 C4.45321114 18.69108818 3.41687928 14.43861622 2.5625 9.953125 C2.10907203 7.78654157 2.10907203 7.78654157 0 6 C-0.6875 4 -0.6875 4 -1 2 C-0.67 1.34 -0.34 0.68 0 0 Z " fill="#4A101C" transform="translate(223,149)"/>
<path d="M0 0 C5.12650942 4.4087981 6.87702914 12.07568942 7.875 18.5625 C7.91625 19.696875 7.9575 20.83125 8 22 C7.34 22.66 6.68 23.32 6 24 C5.0170943 21.10538781 4.03856299 18.20941921 3.0625 15.3125 C2.78470703 14.49587891 2.50691406 13.67925781 2.22070312 12.83789062 C-0.55569499 4.57559743 -0.55569499 4.57559743 -1 1 C-0.67 0.67 -0.34 0.34 0 0 Z " fill="#521628" transform="translate(235,132)"/>
<path d="M0 0 C0.33 0.66 0.66 1.32 1 2 C-3.34791253 7.99712073 -8.94293949 11.82052217 -15 16 C-15.33 14.68 -15.66 13.36 -16 12 C-14.68 11.67 -13.36 11.34 -12 11 C-12 10.34 -12 9.68 -12 9 C-10.1875 6.875 -10.1875 6.875 -8 5 C-7.01 5 -6.02 5 -5 5 C-5 4.01 -5 3.02 -5 2 C-3.35 1.34 -1.7 0.68 0 0 Z " fill="#2C0928" transform="translate(194,331)"/>
<path d="M0 0 C0.99 0.33 1.98 0.66 3 1 C2.57388649 2.75280733 2.13360733 4.50217435 1.6875 6.25 C1.44386719 7.22453125 1.20023438 8.1990625 0.94921875 9.203125 C-0.00521448 12.01536448 -0.98854083 13.8282446 -3 16 C-3.66 16 -4.32 16 -5 16 C-5 15.34 -5 14.68 -5 14 C-5.66 13.67 -6.32 13.34 -7 13 C-3.535 6.565 -3.535 6.565 0 0 Z " fill="#24061C" transform="translate(200,314)"/>
<path d="M0 0 C0.0272367 2.52090778 0.04695207 5.04151457 0.0625 7.5625 C0.07087891 8.26697266 0.07925781 8.97144531 0.08789062 9.69726562 C0.10882603 14.24024798 -0.25199318 18.51784892 -1 23 C-1.99 22.34 -2.98 21.68 -4 21 C-4.76239111 14.51059946 -4.45226892 7.38998326 -3 1 C-1 0 -1 0 0 0 Z " fill="#1F061A" transform="translate(270,283)"/>
<path d="M0 0 C2.01275953 3.0191393 2.67024547 4.45513876 3 8 C2.40265389 10.02178685 1.72351427 12.01985568 1 14 C0.27041645 16.98688568 -0.37132855 19.99040261 -1 23 C-1.66 23 -2.32 23 -3 23 C-3.33 23.66 -3.66 24.32 -4 25 C-3.690625 23.824375 -3.38125 22.64875 -3.0625 21.4375 C-1.75796239 15.69569715 -1.53095957 9.92259694 -1.24609375 4.0625 C-1 1 -1 1 0 0 Z " fill="#5B1A2C" transform="translate(153,179)"/>
<path d="M0 0 C0.33 0 0.66 0 1 0 C2.92769825 8.43560755 2.53460917 16.76252019 0 25 C-0.99 24.67 -1.98 24.34 -3 24 C-3 22.35 -3 20.7 -3 19 C-2.34 18.67 -1.68 18.34 -1 18 C-1.01160156 17.28714844 -1.02320313 16.57429688 -1.03515625 15.83984375 C-1.08606026 10.43674634 -0.94608271 5.32171525 0 0 Z " fill="#3C0B2E" transform="translate(236,247)"/>
<path d="M0 0 C0.99 0.33 1.98 0.66 3 1 C3 3 3 3 0.9375 5.125 C0.48503906 5.55425781 0.03257812 5.98351562 -0.43359375 6.42578125 C-2.92566436 8.93028114 -5.11745865 11.69127857 -7.3515625 14.42578125 C-9 16 -9 16 -12 16 C-4.57142857 4.57142857 -4.57142857 4.57142857 0 0 Z " fill="#16031E" transform="translate(240,366)"/>
<path d="M0 0 C4.50720772 1.50240257 6.85458167 4.95175482 9 9 C9.919411 11.97040478 10.5332565 14.92785251 11 18 C10.01 18 9.02 18 8 18 C6.875 13.25 6.875 13.25 8 11 C7.01 10.67 6.02 10.34 5 10 C3.61328125 7.96875 3.61328125 7.96875 2.3125 5.5 C1.87550781 4.6853125 1.43851562 3.870625 0.98828125 3.03125 C0 1 0 1 0 0 Z " fill="#591C2C" transform="translate(63,294)"/>
<path d="M0 0 C0.66 0 1.32 0 2 0 C0.88321734 2.83490984 -0.28163444 5.60833039 -1.5625 8.375 C-2.99307895 11.98254692 -3.60752107 15.1537065 -4 19 C-4.66 18.67 -5.32 18.34 -6 18 C-7.425 10.6375 -7.425 10.6375 -5 7 C-4.34 7 -3.68 7 -3 7 C-2.814375 5.824375 -2.814375 5.824375 -2.625 4.625 C-2 2 -2 2 0 0 Z " fill="#461520" transform="translate(27,292)"/>
<path d="M0 0 C0.66 0 1.32 0 2 0 C3.03227862 2.60014527 4.05105152 5.20426369 5.0625 7.8125 C5.35705078 8.55048828 5.65160156 9.28847656 5.95507812 10.04882812 C8.11328125 15.66015625 8.11328125 15.66015625 7 19 C4.59592845 16.00198136 2.87515814 12.97975037 1.25 9.5 C0.80140625 8.5615625 0.3528125 7.623125 -0.109375 6.65625 C-1.04754818 3.85818963 -1.04650678 2.7056029 0 0 Z " fill="#661E2C" transform="translate(19,327)"/>
<path d="M0 0 C1 4 1 4 -0.14453125 6.10546875 C-0.69496094 6.79253906 -1.24539062 7.47960937 -1.8125 8.1875 C-2.35519531 8.88230469 -2.89789063 9.57710937 -3.45703125 10.29296875 C-5 12 -5 12 -7 13 C-8.0409066 14.64142963 -9.04504326 16.30712215 -10 18 C-10.99 17.67 -11.98 17.34 -13 17 C-6.565 8.585 -6.565 8.585 0 0 Z " fill="#410B1D" transform="translate(158,217)"/>
<path d="M0 0 C0.66 0 1.32 0 2 0 C2 0.66 2 1.32 2 2 C2.99 2.33 3.98 2.66 5 3 C8.85321325 7.64652186 9.59796387 11.17047614 10 17 C8.49440461 15.03617993 7.10868317 13.21736634 6 11 C5.01 11 4.02 11 3 11 C2.814375 9.948125 2.814375 9.948125 2.625 8.875 C1.96161655 5.82343613 1.02788045 2.94659062 0 0 Z " fill="#3B0C1A" transform="translate(194,186)"/>
<path d="M0 0 C0.99 0.66 1.98 1.32 3 2 C2.34 2 1.68 2 1 2 C0.773125 2.763125 0.54625 3.52625 0.3125 4.3125 C-1.48165488 9.35322087 -3.74058077 14.15345951 -6 19 C-6.66 18.01 -7.32 17.02 -8 16 C-6.87778771 10.76300931 -3.86732745 3.86732745 0 0 Z " fill="#5A2024" transform="translate(182,90)"/>
<path d="M0 0 C0.33 0.66 0.66 1.32 1 2 C-2.18033274 8.48787878 -6.2067054 14.99865217 -13 18 C-9.84401727 11.26923115 -4.78591111 5.63048365 0 0 Z " fill="#51121F" transform="translate(130,228)"/>
<path d="M0 0 C2.15641331 3.23461997 2.81100973 5.67072961 3.6875 9.4375 C3.95949219 10.57058594 4.23148438 11.70367187 4.51171875 12.87109375 C4.96085657 15.74916889 4.98469931 17.31025087 4 20 C4 19.34 4 18.68 4 18 C3.34 18 2.68 18 2 18 C1.46635113 15.94077867 0.94857811 13.87743893 0.4375 11.8125 C0.00244141 10.08966797 0.00244141 10.08966797 -0.44140625 8.33203125 C-0.98068761 5.11519907 -0.88247476 3.10327217 0 0 Z " fill="#52182F" transform="translate(245,163)"/>
<path d="M0 0 C0.33 0 0.66 0 1 0 C2.24581251 4.82752346 3.29771645 11.40456709 1 16 C0.9603287 17.66619446 0.95615553 19.33391013 1 21 C-3 16.375 -3 16.375 -3 13 C-2.34 12.67 -1.68 12.34 -1 12 C-0.53101037 9.1840151 -0.53101037 9.1840151 -0.375 5.9375 C-0.30023438 4.83277344 -0.22546875 3.72804688 -0.1484375 2.58984375 C-0.09945312 1.73519531 -0.05046875 0.88054687 0 0 Z " fill="#3F0E28" transform="translate(202,272)"/>
<path d="M0 0 C11.55 0.33 23.1 0.66 35 1 C35 1.33 35 1.66 35 2 C25.1 2.33 15.2 2.66 5 3 C5 2.34 5 1.68 5 1 C3.35 1 1.7 1 0 1 C0 0.67 0 0.34 0 0 Z " fill="#4A1636" transform="translate(119,409)"/>
<path d="M0 0 C0.66 0 1.32 0 2 0 C2.33 6.6 2.66 13.2 3 20 C2.01 19.67 1.02 19.34 0 19 C0 12.73 0 6.46 0 0 Z " fill="#531631" transform="translate(100,301)"/>
<path d="M0 0 C-0.33 0.99 -0.66 1.98 -1 3 C-3.69917736 3.80975321 -6.24978941 4.46236485 -9 5 C-10.485 5.309375 -10.485 5.309375 -12 5.625 C-12.66 5.74875 -13.32 5.8725 -14 6 C-13.34 5.67 -12.68 5.34 -12 5 C-11.34786708 2.97536745 -11.34786708 2.97536745 -11 1 C-3.57142857 -1.42857143 -3.57142857 -1.42857143 0 0 Z " fill="#1F0723" transform="translate(206,398)"/>
<path d="M0 0 C0.66 0.33 1.32 0.66 2 1 C1.54109375 1.40089844 1.0821875 1.80179687 0.609375 2.21484375 C-3.66856141 6.17822601 -6.12828632 9.71352457 -8.17578125 15.1796875 C-9 17 -9 17 -11 18 C-13.125 17.0625 -13.125 17.0625 -15 16 C-13.35 15.67 -11.7 15.34 -10 15 C-9.773125 13.948125 -9.54625 12.89625 -9.3125 11.8125 C-8.18137244 7.81315612 -6.12822937 5.74673798 -3 3 C-2.401875 2.401875 -1.80375 1.80375 -1.1875 1.1875 C-0.795625 0.795625 -0.40375 0.40375 0 0 Z " fill="#752B38" transform="translate(38,296)"/>
<path d="M0 0 C0 4.01562686 -1.67111796 5.59856406 -4.359375 8.43359375 C-6.13122676 10.12529031 -7.97837405 11.59221545 -9.9375 13.0625 C-10.60652344 13.56910156 -11.27554688 14.07570313 -11.96484375 14.59765625 C-13.91498976 15.94142289 -15.85752273 16.99826007 -18 18 C-14.24011823 13.39414483 -10.36303633 9.42876079 -5.8359375 5.578125 C-3.7854109 3.81554469 -1.87227771 1.95028928 0 0 Z " fill="#340D34" transform="translate(236,369)"/>
<path d="M0 0 C1.98 0 3.96 0 6 0 C4.6875 3.4375 4.6875 3.4375 3 7 C-0.13349732 8.04449911 -0.98968256 7.93423645 -4 7 C-3.34 7 -2.68 7 -2 7 C-1.34 4.69 -0.68 2.38 0 0 Z " fill="#1B0417" transform="translate(218,305)"/>
<path d="M0 0 C1.98 0 3.96 0 6 0 C5.42636719 0.21398437 4.85273438 0.42796875 4.26171875 0.6484375 C1.22899557 2.4607384 -0.19167811 4.72675208 -2.1875 7.625 C-3.43843456 9.43061611 -4.70396483 11.22647818 -6 13 C-6.33 13 -6.66 13 -7 13 C-7.38613383 10.37428995 -7.38493778 8.6156121 -5.95703125 6.33203125 C-4.625 4.6875 -4.625 4.6875 -2 2 C-1.34 2 -0.68 2 0 2 C0 1.34 0 0.68 0 0 Z " fill="#622024" transform="translate(179,71)"/>
<path d="M0 0 C3.75288279 1.25096093 6.70496362 2.80330908 10 5 C9.34 6.65 8.68 8.3 8 10 C6.84481082 9.09515208 5.70114594 8.1755794 4.5625 7.25 C3.60537109 6.48429687 3.60537109 6.48429687 2.62890625 5.703125 C0.81189446 3.80332371 0.39576803 2.56413092 0 0 Z " fill="#2D030F" transform="translate(86,326)"/>
<path d="M0 0 C0.33 1.32 0.66 2.64 1 4 C1.66 4 2.32 4 3 4 C2.67 11.26 2.34 18.52 2 26 C1.67 26 1.34 26 1 26 C0.67 17.42 0.34 8.84 0 0 Z " fill="#2D0C19" transform="translate(101,290)"/>
<path d="M0 0 C2.67309907 4.0096486 3 6.17156286 3 11 C2.67 11.66 2.34 12.32 2 13 C0.68 12.67 -0.64 12.34 -2 12 C-1.34 8.04 -0.68 4.08 0 0 Z " fill="#380C2C" transform="translate(214,299)"/>
<path d="M0 0 C0.99 0.33 1.98 0.66 3 1 C2.98259766 1.95712891 2.98259766 1.95712891 2.96484375 2.93359375 C2.95582031 3.75988281 2.94679687 4.58617187 2.9375 5.4375 C2.92589844 6.26121094 2.91429687 7.08492187 2.90234375 7.93359375 C2.76732652 9.99163938 2.76732652 9.99163938 4 11 C4.04080783 12.99958364 4.04254356 15.00045254 4 17 C3.34 16.67 2.68 16.34 2 16 C0.41529145 10.80567752 -0.28533749 5.42141225 0 0 Z " fill="#551629" transform="translate(230,172)"/>
<path d="M0 0 C0.66 0.33 1.32 0.66 2 1 C-1.85670943 5.45580993 -7.70445306 6.74608948 -13.43359375 7.1875 C-15.29011483 7.1875 -17.1463373 7.10298126 -19 7 C-15.58800668 4.72533779 -12.29268462 3.90587505 -8.375 2.9375 C-3.82484108 2.13976518 -3.82484108 2.13976518 0 0 Z " fill="#3B0F37" transform="translate(193,400)"/>
<path d="M0 0 C0.81210938 0.41378906 0.81210938 0.41378906 1.640625 0.8359375 C4.31904312 2.15740869 7.02885041 3.39400376 9.75 4.625 C11.22726563 5.29402344 11.22726563 5.29402344 12.734375 5.9765625 C13.85585937 6.48316406 13.85585937 6.48316406 15 7 C14.67 7.66 14.34 8.32 14 9 C13.21625 8.649375 12.4325 8.29875 11.625 7.9375 C10.75875 7.628125 9.8925 7.31875 9 7 C8.01 7.495 8.01 7.495 7 8 C1.21538462 4.55384615 1.21538462 4.55384615 0.125 1.75 C0.08375 1.1725 0.0425 0.595 0 0 Z " fill="#310F1C" transform="translate(99,347)"/>
<path d="M0 0 C0.66 0.33 1.32 0.66 2 1 C0.87895467 2.31587941 -0.24696965 3.62760353 -1.375 4.9375 C-2.00148438 5.66839844 -2.62796875 6.39929688 -3.2734375 7.15234375 C-5 9 -5 9 -7 10 C-7.33 10.99 -7.66 11.98 -8 13 C-8.99 13.33 -9.98 13.66 -11 14 C-9.18352668 8.00563806 -5.14218863 3.42812575 0 0 Z " fill="#59181F" transform="translate(29,281)"/>
<path d="M0 0 C0.99 0.33 1.98 0.66 3 1 C2.71640113 2.4391134 2.42278601 3.87625518 2.125 5.3125 C1.96257812 6.11300781 1.80015625 6.91351563 1.6328125 7.73828125 C1 10 1 10 -1 13 C-1.66 12.67 -2.32 12.34 -3 12 C-3.43200679 7.24792529 -1.98489083 4.21789302 0 0 Z " fill="#2B0626" transform="translate(232,272)"/>
<path d="M0 0 C1 3 1 3 1 6 C1.04125 7.155 1.0825 8.31 1.125 9.5 C1 13 1 13 -1 16 C-2.36271133 13.27457733 -2.16923601 11.03912726 -2.1875 8 C-2.20167969 6.9275 -2.21585937 5.855 -2.23046875 4.75 C-2 2 -2 2 0 0 Z " fill="#571830" transform="translate(97,292)"/>
<path d="M0 0 C3.44428265 1.44781793 5.36130962 3.27694609 7.75 6.125 C8.36359375 6.84945313 8.9771875 7.57390625 9.609375 8.3203125 C10.29773438 9.15175781 10.29773438 9.15175781 11 10 C10.67 10.66 10.34 11.32 10 12 C9.01 11.67 8.02 11.34 7 11 C7 9.68 7 8.36 7 7 C6.21625 6.71125 5.4325 6.4225 4.625 6.125 C2 5 2 5 0 3 C0 2.01 0 1.02 0 0 Z " fill="#47151C" transform="translate(73,283)"/>
<path d="M0 0 C0 3.54404336 -0.60989485 4.10267905 -2.875 6.6875 C-3.40867188 7.31011719 -3.94234375 7.93273437 -4.4921875 8.57421875 C-6 10 -6 10 -8 10 C-8.33 10.99 -8.66 11.98 -9 13 C-9.99 12.67 -10.98 12.34 -12 12 C-10.75933437 10.3678622 -9.50708312 8.74452679 -8.25 7.125 C-7.20585937 5.76761719 -7.20585937 5.76761719 -6.140625 4.3828125 C-4.13433055 2.14952853 -2.75692659 1.08041718 0 0 Z " fill="#4D1020" transform="translate(143,215)"/>
<path d="M0 0 C0.33 0.99 0.66 1.98 1 3 C2.32914846 5.81068338 3.67876861 8.61050786 5.0390625 11.40625 C6 14 6 14 5 17 C4.34 16.34 3.68 15.68 3 15 C3 13.68 3 12.36 3 11 C2.34 11 1.68 11 1 11 C1 9.68 1 8.36 1 7 C0.34 7 -0.32 7 -1 7 C-2 4 -2 4 -1.0625 1.8125 C-0.5365625 0.9153125 -0.5365625 0.9153125 0 0 Z " fill="#2C0A14" transform="translate(195,199)"/>
<path d="M0 0 C0.66 0 1.32 0 2 0 C4.44064587 5.64399358 4.19289099 10.97751478 4 17 C3.01 16.34 2.02 15.68 1 15 C0.7421875 12.28515625 0.7421875 12.28515625 0.875 9.0625 C1.05078015 4.45151804 1.05078015 4.45151804 0 0 Z " fill="#36121A" transform="translate(157,172)"/>
<path d="M0 0 C0.66 0.66 1.32 1.32 2 2 C1.62890625 3.828125 1.62890625 3.828125 1 6 C0.93451508 7.58211573 0.91421619 9.16670081 0.9375 10.75 C0.94652344 11.54921875 0.95554687 12.3484375 0.96484375 13.171875 C0.97644531 13.77515625 0.98804687 14.3784375 1 15 C0.34 15 -0.32 15 -1 15 C-2.50913724 10.47258828 -2.77429281 5.93573202 -1 1.5 C-0.67 1.005 -0.34 0.51 0 0 Z " fill="#72262D" transform="translate(118,137)"/>
<path d="M0 0 C0.33 0 0.66 0 1 0 C1.12375 0.969375 1.2475 1.93875 1.375 2.9375 C1.58125 3.948125 1.7875 4.95875 2 6 C2.66 6.33 3.32 6.66 4 7 C3.25 13.625 3.25 13.625 1 17 C-0.18681726 13.43954823 -0.09689832 10.56191663 -0.0625 6.8125 C-0.05347656 5.54019531 -0.04445312 4.26789063 -0.03515625 2.95703125 C-0.02355469 1.98121094 -0.01195312 1.00539063 0 0 Z " fill="#24091C" transform="translate(226,256)"/>
<path d="M0 0 C2.16721782 3.25082673 2.27221018 4.29232153 2.25 8.0625 C2.25515625 8.94035156 2.2603125 9.81820312 2.265625 10.72265625 C2 13 2 13 0 15 C-2.27477677 11.46145836 -1.99082706 9.29052627 -1.125 5.25 C-0.92132813 4.26515625 -0.71765625 3.2803125 -0.5078125 2.265625 C-0.34023437 1.51796875 -0.17265625 0.7703125 0 0 Z " fill="#3E0B2A" transform="translate(247,243)"/>
<path d="M0 0 C0.33 0.99 0.66 1.98 1 3 C-0.43359375 5.04296875 -0.43359375 5.04296875 -2.4375 7.1875 C-3.09621094 7.90292969 -3.75492188 8.61835938 -4.43359375 9.35546875 C-5.20896484 10.16951172 -5.20896484 10.16951172 -6 11 C-6.99 10.67 -7.98 10.34 -9 10 C-6.03 6.7 -3.06 3.4 0 0 Z " fill="#420B1E" transform="translate(144,235)"/>
<path d="M0 0 C0 3 0 3 -2.0625 5.25 C-3.03996547 6.16848048 -4.01936591 7.08490333 -5 8 C-6.27477795 9.26687643 -7.54553523 10.53780984 -8.8125 11.8125 C-9.875 12.875 -10.9375 13.9375 -12 15 C-12 11.78465943 -11.73523928 10.64417414 -10 8 C-8.34928604 6.97388051 -6.68029994 5.97691857 -5 5 C-3.2958946 3.37163262 -1.61974559 1.71230248 0 0 Z " fill="#3B0F2C" transform="translate(216,328)"/>
<path d="M0 0 C0.66 0.33 1.32 0.66 2 1 C1.835 1.763125 1.67 2.52625 1.5 3.3125 C0.90854604 6.03596236 0.90854604 6.03596236 1 9 C-0.98 9.99 -0.98 9.99 -3 11 C-3.33 9.35 -3.66 7.7 -4 6 C-3.34 6 -2.68 6 -2 6 C-1.855625 5.195625 -1.71125 4.39125 -1.5625 3.5625 C-1 1 -1 1 0 0 Z " fill="#1A030B" transform="translate(190,317)"/>
<path d="M0 0 C2 3 2 3 1.75 6.375 C1.09860898 9.52338995 0.50126307 12.16428088 -1 15 C-1.99 15.33 -2.98 15.66 -4 16 C-2.68 10.72 -1.36 5.44 0 0 Z " fill="#480D22" transform="translate(166,195)"/>
<path d="M0 0 C2.475 0.495 2.475 0.495 5 1 C5 1.66 5 2.32 5 3 C6.0828125 3.185625 6.0828125 3.185625 7.1875 3.375 C9.98200584 3.9960013 12.41259045 4.77816771 15 6 C15.33 6.66 15.66 7.32 16 8 C9.78310074 7.67279478 4.99100726 4.47200505 0 1 C0 0.67 0 0.34 0 0 Z " fill="#5A1E20" transform="translate(113,170)"/>
<path d="M0 0 C2.3979567 2.86440855 3.48740082 5.08794276 4.1875 8.75 C4.34605469 9.54921875 4.50460938 10.3484375 4.66796875 11.171875 C4.83232422 12.07679688 4.83232422 12.07679688 5 13 C2.5 12.125 2.5 12.125 0 10 C-0.46087248 6.63291991 -0.28526928 3.37885612 0 0 Z " fill="#3E111B" transform="translate(84,295)"/>
<path d="M0 0 C0.99 0 1.98 0 3 0 C2.67 5.94 2.34 11.88 2 18 C1.67 18 1.34 18 1 18 C0.67 14.37 0.34 10.74 0 7 C-0.33 7 -0.66 7 -1 7 C-0.67 4.69 -0.34 2.38 0 0 Z " fill="#280713" transform="translate(116,295)"/>
<path d="M0 0 C1.1171875 1.734375 1.1171875 1.734375 2 4 C1.3203125 6.140625 1.3203125 6.140625 0.125 8.25 C-0.26429687 8.95640625 -0.65359375 9.6628125 -1.0546875 10.390625 C-1.36664063 10.92171875 -1.67859375 11.4528125 -2 12 C-4 9 -4 9 -3.8125 7.125 C-2.82544914 4.54348238 -1.48547668 2.32509394 0 0 Z " fill="#360A1B" transform="translate(126,269)"/>
<path d="M0 0 C0 0.66 0 1.32 0 2 C0.99 2.33 1.98 2.66 3 3 C-0.82989106 4.80230168 -3.78121808 5.19622241 -8 5 C-7 2 -7 2 -5.125 0.8125 C-3 0 -3 0 0 0 Z " fill="#622225" transform="translate(144,96)"/>
<path d="M0 0 C2.33405265 2.33405265 3.31194287 4.50451742 4.6875 7.5 C5.37392578 8.96953125 5.37392578 8.96953125 6.07421875 10.46875 C6.37972656 11.3040625 6.68523437 12.139375 7 13 C6.67 13.66 6.34 14.32 6 15 C5.401875 13.906875 4.80375 12.81375 4.1875 11.6875 C2.9634194 9.5060135 2.06268513 8.05620046 0.1875 6.375 C-0.204375 5.92125 -0.59625 5.4675 -1 5 C-0.6875 2.3125 -0.6875 2.3125 0 0 Z " fill="#2A0F15" transform="translate(74,312)"/>
<path d="M0 0 C0.33 0 0.66 0 1 0 C3.57000877 10.32592809 3.57000877 10.32592809 3 15 C2.01 15.66 1.02 16.32 0 17 C-0.97040422 11.06975197 -0.89316269 5.93609666 0 0 Z " fill="#300815" transform="translate(209,247)"/>
<path d="M0 0 C2.31 0.33 4.62 0.66 7 1 C7.33 2.32 7.66 3.64 8 5 C1.84765625 4.4140625 1.84765625 4.4140625 0 4 C-0.33 3.34 -0.66 2.68 -1 2 C-0.67 1.34 -0.34 0.68 0 0 Z " fill="#390418" transform="translate(180,173)"/>
<path d="M0 0 C0.66 0 1.32 0 2 0 C1.71517632 1.41805831 1.42181856 2.83440379 1.125 4.25 C0.88136719 5.43335938 0.88136719 5.43335938 0.6328125 6.640625 C0.00849925 8.96831144 -0.84838542 10.89031952 -2 13 C-3.34465195 5.78777589 -3.34465195 5.78777589 -1.6875 2 C-1.130625 1.34 -0.57375 0.68 0 0 Z " fill="#4E1C21" transform="translate(127,127)"/>
<path d="M0 0 C-0.53109375 0.32613281 -1.0621875 0.65226562 -1.609375 0.98828125 C-5.18236731 3.19858124 -8.70082313 5.38815164 -12 8 C-12.33 7.01 -12.66 6.02 -13 5 C-9.35915152 0.79902099 -5.5729332 -1.8576444 0 0 Z " fill="#4A181D" transform="translate(144,115)"/>
<path d="M0 0 C0.33 0 0.66 0 1 0 C1.125 5.75 1.125 5.75 0 8 C-1.65614657 8.38218767 -3.32457024 8.71395102 -5 9 C-5.99 9.495 -5.99 9.495 -7 10 C-5.32971708 6.05205855 -2.8204435 3.18203882 0 0 Z " fill="#2E0B2F" transform="translate(244,359)"/>
<path d="M0 0 C1 2 1 2 0.25 5.0625 C-0.1625 6.031875 -0.575 7.00125 -1 8 C-4 9 -4 9 -7 9 C-7.33 8.01 -7.66 7.02 -8 6 C-5 4 -5 4 -3 4 C-1.36323743 2.0399719 -1.36323743 2.0399719 0 0 Z " fill="#440712" transform="translate(123,262)"/>
<path d="M0 0 C0.66 0.33 1.32 0.66 2 1 C1.09985829 5.30067708 -0.09828697 7.3884892 -3.625 9.875 C-4.73875 10.57625 -5.8525 11.2775 -7 12 C-6.27238451 8.64335872 -5.46746303 7.37256061 -3 5 C-1.96642853 3.35394174 -0.95939668 1.69036558 0 0 Z " fill="#480E1E" transform="translate(148,204)"/>
<path d="M0 0 C1.485 0.99 1.485 0.99 3 2 C3.1875 5.625 3.1875 5.625 3 9 C1.68 9 0.36 9 -1 9 C-0.67 6.03 -0.34 3.06 0 0 Z " fill="#461021" transform="translate(158,187)"/>
<path d="M0 0 C0.99 0 1.98 0 3 0 C6 3.33333333 6 3.33333333 6 6 C6.61875 6.103125 7.2375 6.20625 7.875 6.3125 C10 7 10 7 12 10 C6.12871177 8.74186681 3.34844493 5.73769335 0 1 C0 0.67 0 0.34 0 0 Z " fill="#581A23" transform="translate(117,152)"/>
<path d="M0 0 C2.17175481 3.25763222 2.46043998 4.22439213 2 8 C0.625 10.3125 0.625 10.3125 -1 12 C-1.66 12 -2.32 12 -3 12 C-2.01 8.04 -1.02 4.08 0 0 Z " fill="#320C2F" transform="translate(262,318)"/>
<path d="M0 0 C0.33 0 0.66 0 1 0 C1.55353075 10.55808656 1.55353075 10.55808656 -2 15 C-3.10844919 11.67465243 -2.84454356 9.37817425 -2 6 C-1.67 6 -1.34 6 -1 6 C-0.67 4.02 -0.34 2.04 0 0 Z " fill="#370E32" transform="translate(267,297)"/>
<path d="M0 0 C0.99 0.33 1.98 0.66 3 1 C2.1875 4.4375 2.1875 4.4375 1 8 C0.01 8.33 -0.98 8.66 -2 9 C-3 6 -3 6 -1.5625 2.8125 C-1.046875 1.884375 -0.53125 0.95625 0 0 Z " fill="#30092B" transform="translate(228,285)"/>
<path d="M0 0 C0.66 0 1.32 0 2 0 C1.01 3.96 0.02 7.92 -1 12 C-1.66 11.34 -2.32 10.68 -3 10 C-2.67342446 6.24438133 -1.8830622 3.26397448 0 0 Z " fill="#59192B" transform="translate(104,267)"/>
<path d="M0 0 C1.41634833 2.83269666 1.3463005 5.47466438 1.5625 8.625 C1.64628906 9.81351563 1.73007813 11.00203125 1.81640625 12.2265625 C1.87699219 13.14179688 1.93757812 14.05703125 2 15 C1.01 14.67 0.02 14.34 -1 14 C-0.979375 13.21625 -0.95875 12.4325 -0.9375 11.625 C-0.81315937 9.01885039 -0.81315937 9.01885039 -2 7 C-1.39239518 4.6505947 -0.72870472 2.31470912 0 0 Z " fill="#250714" transform="translate(207,231)"/>
<path d="M0 0 C1.258125 -0.04125 2.51625 -0.0825 3.8125 -0.125 C4.52019531 -0.14820313 5.22789062 -0.17140625 5.95703125 -0.1953125 C8 0 8 0 11 2 C11 2.66 11 3.32 11 4 C6.44262737 3.56179109 3.42346555 3.14958831 0 0 Z " fill="#380C27" transform="translate(126,350)"/>
<path d="M0 0 C2.97 0 5.94 0 9 0 C9 0.99 9 1.98 9 3 C6.03 3 3.06 3 0 3 C0 2.01 0 1.02 0 0 Z " fill="#491835" transform="translate(140,347)"/>
<path d="M0 0 C0.66 0.33 1.32 0.66 2 1 C1.01 4.96 0.02 8.92 -1 13 C-1.33 13 -1.66 13 -2 13 C-3.35384615 5.73846154 -3.35384615 5.73846154 -1.5625 2 C-1.046875 1.34 -0.53125 0.68 0 0 Z " fill="#310B18" transform="translate(121,281)"/>
<path d="M0 0 C-3.00836106 2.00557404 -5.57148844 2.92859014 -9 4 C-9.99 4.33 -10.98 4.66 -12 5 C-12.66 4.34 -13.32 3.68 -14 3 C-12.42274653 2.29866401 -10.83788667 1.614417 -9.25 0.9375 C-7.92742188 0.36322266 -7.92742188 0.36322266 -6.578125 -0.22265625 C-3.84743691 -1.04600008 -2.63098653 -0.9773992 0 0 Z " fill="#501A21" transform="translate(45,277)"/>
<path d="M0 0 C0.78246094 0.01675781 1.56492187 0.03351563 2.37109375 0.05078125 C3.15613281 0.05464844 3.94117188 0.05851562 4.75 0.0625 C6.80859375 0.36328125 6.80859375 0.36328125 8.80859375 2.36328125 C4.18859375 2.69328125 -0.43140625 3.02328125 -5.19140625 3.36328125 C-2.19140625 0.36328125 -2.19140625 0.36328125 0 0 Z " fill="#591D2B" transform="translate(46.19140625,281.63671875)"/>
<path d="M0 0 C1.44977894 2.34112451 2.04314411 3.5796929 1.7578125 6.359375 C1.54898438 7.14828125 1.34015625 7.9371875 1.125 8.75 C0.92132813 9.54921875 0.71765625 10.3484375 0.5078125 11.171875 C0.34023437 11.77515625 0.17265625 12.3784375 0 13 C-0.66 13 -1.32 13 -2 13 C-2.33 13.66 -2.66 14.32 -3 15 C-2.86722656 14.41992188 -2.73445312 13.83984375 -2.59765625 13.2421875 C-1.60295999 8.84229018 -0.68631668 4.46105842 0 0 Z " fill="#531223" transform="translate(152,189)"/>
<path d="M0 0 C1.45606519 4.52092968 0.27032841 7.51648796 -1 12 C-1.99 11.67 -2.98 11.34 -4 11 C-4 9.35 -4 7.7 -4 6 C-3.34 5.67 -2.68 5.34 -2 5 C-1.27840576 3.35636866 -0.60648579 1.68949614 0 0 Z " fill="#23061D" transform="translate(237,260)"/>
<path d="M0 0 C0.33 0.66 0.66 1.32 1 2 C1.66 2 2.32 2 3 2 C4.88391785 5.26545761 5.49287967 8.28111761 6 12 C5.34 12 4.68 12 4 12 C3.32645501 10.56570999 2.66140299 9.12742943 2 7.6875 C1.62875 6.88699219 1.2575 6.08648437 0.875 5.26171875 C0 3 0 3 0 0 Z " fill="#4E1129" transform="translate(204,202)"/>
<path d="M0 0 C-0.309375 0.598125 -0.61875 1.19625 -0.9375 1.8125 C-2.10209704 4.08956772 -2.10209704 4.08956772 -3 7 C-5.31 7.33 -7.62 7.66 -10 8 C-8.33333333 6.33333333 -6.66666667 4.66666667 -5 3 C-4.443125 2.401875 -3.88625 1.80375 -3.3125 1.1875 C-2 0 -2 0 0 0 Z " fill="#21071A" transform="translate(206,337)"/>
<path d="M0 0 C3.03920174 3.03920174 3.44265837 3.73410982 4.1875 7.6875 C4.34605469 8.49574219 4.50460938 9.30398438 4.66796875 10.13671875 C4.77753906 10.75160156 4.88710937 11.36648438 5 12 C4.01 12 3.02 12 2 12 C1.34 8.04 0.68 4.08 0 0 Z " fill="#351119" transform="translate(69,300)"/>
<path d="M0 0 C0.66 0 1.32 0 2 0 C2 3.3 2 6.6 2 10 C1.34 9.67 0.68 9.34 0 9 C-0.44921875 7.1875 -0.44921875 7.1875 -0.6875 5 C-0.77386719 4.278125 -0.86023438 3.55625 -0.94921875 2.8125 C-0.96597656 2.214375 -0.98273437 1.61625 -1 1 C-0.67 0.67 -0.34 0.34 0 0 Z " fill="#521B22" transform="translate(21,301)"/>
<path d="M0 0 C1.32 0 2.64 0 4 0 C3.34 3.3 2.68 6.6 2 10 C1.34 9.67 0.68 9.34 0 9 C0.33 7.35 0.66 5.7 1 4 C0.34 3.67 -0.32 3.34 -1 3 C-0.67 2.01 -0.34 1.02 0 0 Z " fill="#1B0417" transform="translate(224,293)"/>
<path d="M0 0 C2.31 0.33 4.62 0.66 7 1 C7 2.98 7 4.96 7 7 C5.83040013 6.02433888 4.66438823 5.044375 3.5 4.0625 C2.8503125 3.51722656 2.200625 2.97195312 1.53125 2.41015625 C1.0259375 1.94480469 0.520625 1.47945313 0 1 C0 0.67 0 0.34 0 0 Z " fill="#3A090A" transform="translate(198,109)"/>
<path d="M0 0 C4.04648443 1.34882814 4.95502599 3.34826069 7 7 C6.67 7.99 6.34 8.98 6 10 C3.25722422 6.80009492 1.3697164 3.99500618 0 0 Z " fill="#3C0D21" transform="translate(116,337)"/>
<path d="M0 0 C2.52259061 1.97420135 2.9929808 2.96745642 3.6875 6.1875 C3.790625 7.115625 3.89375 8.04375 4 9 C3.01 9.495 3.01 9.495 2 10 C1.01 7.03 0.02 4.06 -1 1 C-0.67 0.67 -0.34 0.34 0 0 Z " fill="#430F25" transform="translate(113,327)"/>
<path d="M0 0 C0.99 0 1.98 0 3 0 C1.66511872 3.59391114 0.03977277 6.75490696 -2 10 C-3.39195915 5.82412255 -1.82323219 3.86525224 0 0 Z " fill="#491023" transform="translate(118,270)"/>
<path d="M0 0 C0.66 0 1.32 0 2 0 C4.24828052 4.49656104 4.16682272 8.07872966 4 13 C3.34 13 2.68 13 2 13 C1.34 8.71 0.68 4.42 0 0 Z " fill="#440D1E" transform="translate(194,220)"/>
<path d="M0 0 C0.33 0.66 0.66 1.32 1 2 C-0.65 3.98 -2.3 5.96 -4 8 C-4.66 7.67 -5.32 7.34 -6 7 C-5.8125 4.625 -5.8125 4.625 -5 2 C-2.4375 0.6875 -2.4375 0.6875 0 0 Z " fill="#140212" transform="translate(194,331)"/>
<path d="M0 0 C0.66 0 1.32 0 2 0 C2.28571429 7.42857143 2.28571429 7.42857143 0 11 C-1.05404945 7.01803543 -0.84098656 4.01804691 0 0 Z " fill="#0B000A" transform="translate(239,249)"/>
<path d="M0 0 C0 3.69418201 -1.28179295 5.77836178 -3 9 C-3.66 8.67 -4.32 8.34 -5 8 C-4.75 5.125 -4.75 5.125 -4 2 C-1.9375 0.625 -1.9375 0.625 0 0 Z " fill="#350817" transform="translate(152,213)"/>
<path d="M0 0 C0.33 0 0.66 0 1 0 C1.66 4.29 2.32 8.58 3 13 C2.01 12.67 1.02 12.34 0 12 C0 8.04 0 4.08 0 0 Z " fill="#230813" transform="translate(118,315)"/>
<path d="M0 0 C2.64465038 3.1254959 3.84414715 6.08788267 5 10 C4.01 10 3.02 10 2 10 C2 8.68 2 7.36 2 6 C1.34 6 0.68 6 0 6 C0 4.02 0 2.04 0 0 Z " fill="#2E0B15" transform="translate(90,312)"/>
<path d="M0 0 C0.66 0 1.32 0 2 0 C1.64950425 3.24208567 1.43778819 4.61527704 -1.0625 6.8125 C-1.701875 7.204375 -2.34125 7.59625 -3 8 C-3.66 7.67 -4.32 7.34 -5 7 C-4.21654285 5.82780457 -3.42297164 4.66236332 -2.625 3.5 C-2.18414062 2.8503125 -1.74328125 2.200625 -1.2890625 1.53125 C-0.65097656 0.77328125 -0.65097656 0.77328125 0 0 Z " fill="#4E1022" transform="translate(122,248)"/>
<path d="M0 0 C0.33 0.66 0.66 1.32 1 2 C1.66 2 2.32 2 3 2 C2.67 5.3 2.34 8.6 2 12 C-0.13586678 8.79619983 -0.23132175 7.98060033 -0.125 4.3125 C-0.10695312 3.50425781 -0.08890625 2.69601563 -0.0703125 1.86328125 C-0.04710937 1.24839844 -0.02390625 0.63351563 0 0 Z " fill="#4C1635" transform="translate(249,228)"/>
<path d="M0 0 C2.79872437 2.52788007 4.45773019 4.20411134 5 8 C4.01 8 3.02 8 2 8 C-0.1519437 4.77208445 -0.20086443 3.71599191 0 0 Z " fill="#3D1318" transform="translate(214,111)"/>
<path d="M0 0 C0.66 0.33 1.32 0.66 2 1 C1.34 3.31 0.68 5.62 0 8 C-0.99 8 -1.98 8 -3 8 C-3 6.35 -3 4.7 -3 3 C-2.01 2.67 -1.02 2.34 0 2 C0 1.34 0 0.68 0 0 Z " fill="#873035" transform="translate(109,92)"/>
<path d="M0 0 C6.93 0.495 6.93 0.495 14 1 C14 1.33 14 1.66 14 2 C7.565 2.495 7.565 2.495 1 3 C0.67 2.01 0.34 1.02 0 0 Z " fill="#2D0E1C" transform="translate(126,360)"/>
<path d="M0 0 C3.16115776 1.36983503 3.9927092 1.9890638 6 5 C5.625 7.1875 5.625 7.1875 5 9 C4.16396622 7.68921847 3.3312426 6.37632511 2.5 5.0625 C2.0359375 4.33160156 1.571875 3.60070312 1.09375 2.84765625 C0 1 0 1 0 0 Z " fill="#5A1B2A" transform="translate(26,346)"/>
<path d="M0 0 C1.85776765 3.13498292 2.20140476 5.37471432 2 9 C-2 4.375 -2 4.375 -2 1 C-1.34 0.67 -0.68 0.34 0 0 Z " fill="#2F0515" transform="translate(201,284)"/>
<path d="M0 0 C1.31223496 3.93670488 0.24296256 6.12488144 -1 10 C-1.33 10 -1.66 10 -2 10 C-2.33 7.36 -2.66 4.72 -3 2 C-2.01 1.34 -1.02 0.68 0 0 Z " fill="#300A16" transform="translate(107,280)"/>
<path d="M0 0 C2.97 0.33 5.94 0.66 9 1 C8.34 1.66 7.68 2.32 7 3 C4.27130593 2.96712417 1.7033382 2.43602229 -1 2 C-0.67 1.34 -0.34 0.68 0 0 Z " fill="#47142F" transform="translate(98,405)"/>
<path d="M0 0 C2.15377564 2.62198774 3.40072174 4.64404172 4 8 C3.01 8.495 3.01 8.495 2 9 C0.4375 6.1875 0.4375 6.1875 -1 3 C-0.67 2.01 -0.34 1.02 0 0 Z " fill="#5D1827" transform="translate(23,337)"/>
<path d="M0 0 C0.99 0.33 1.98 0.66 3 1 C-0.625 6.75 -0.625 6.75 -4 9 C-2.80100302 5.9168649 -1.52299523 2.93720508 0 0 Z " fill="#400F30" transform="translate(222,318)"/>
<path d="M0 0 C0.33 0.66 0.66 1.32 1 2 C1.99 2 2.98 2 4 2 C4 3.65 4 5.3 4 7 C2 6 2 6 1 3 C-1.00016466 1.79117904 -1.00016466 1.79117904 -3 1 C-2.01 0.67 -1.02 0.34 0 0 Z " fill="#47151C" transform="translate(65,285)"/>
<path d="M0 0 C0.33 0.66 0.66 1.32 1 2 C-0.1875 4.5625 -0.1875 4.5625 -2 7 C-3.32 7.33 -4.64 7.66 -6 8 C-4.02 5.36 -2.04 2.72 0 0 Z " fill="#460F19" transform="translate(130,228)"/>
<path d="M0 0 C0.99 0 1.98 0 3 0 C1.25 5.75 1.25 5.75 -1 8 C-1.625 5.6875 -1.625 5.6875 -2 3 C-1.34 2.01 -0.68 1.02 0 0 Z " fill="#46141A" transform="translate(115,118)"/>
<path d="M0 0 C0.99 0.33 1.98 0.66 3 1 C0.66666667 3.33333333 -1.66666667 5.66666667 -4 8 C-4.25 5.6875 -4.25 5.6875 -4 3 C-2.1875 1.125 -2.1875 1.125 0 0 Z " fill="#7E2A33" transform="translate(181,83)"/>
<path d="M0 0 C2.97 0.495 2.97 0.495 6 1 C6.33 2.32 6.66 3.64 7 5 C5.68 5.33 4.36 5.66 3 6 C2.814375 5.071875 2.814375 5.071875 2.625 4.125 C2.12802644 1.80879168 2.12802644 1.80879168 0 0 Z " fill="#661D20" transform="translate(185,72)"/>
<path d="M0 0 C-0.56371414 3.26954202 -1.49962266 4.82575883 -4 7 C-4 5.02 -4 3.04 -4 1 C-2 0 -2 0 0 0 Z " fill="#1D0621" transform="translate(249,357)"/>
<path d="M0 0 C-2.39509338 2.89932357 -4.31245243 3.50168276 -8 4 C-8 3.34 -8 2.68 -8 2 C-4.77208445 -0.1519437 -3.71599191 -0.20086443 0 0 Z " fill="#340C2B" transform="translate(176,347)"/>
<path d="M0 0 C2.375 0.6875 2.375 0.6875 5 2 C6.3125 4.625 6.3125 4.625 7 7 C6.01 7 5.02 7 4 7 C2.45428722 4.68143083 1.20381448 2.49361571 0 0 Z " fill="#130305" transform="translate(83,330)"/>
<path d="M0 0 C0.99 0 1.98 0 3 0 C3.6875 2.25 3.6875 2.25 4 5 C2.5625 7.3125 2.5625 7.3125 1 9 C0.67 6.03 0.34 3.06 0 0 Z " fill="#1C030F" transform="translate(206,292)"/>
<path d="M0 0 C3.0916909 2.52956528 3.90931332 5.22454612 5 9 C3.0625 8.4375 3.0625 8.4375 1 7 C0.25 3.375 0.25 3.375 0 0 Z " fill="#381118" transform="translate(219,119)"/>
<path d="M0 0 C2.31 0 4.62 0 7 0 C7.33 0.66 7.66 1.32 8 2 C5.36 2.33 2.72 2.66 0 3 C0 2.01 0 1.02 0 0 Z " fill="#822E33" transform="translate(144,95)"/>
<path d="M0 0 C3.37462715 0.54723683 5.08235 1.0549 8 3 C5.69 3.33 3.38 3.66 1 4 C0.67 2.68 0.34 1.36 0 0 Z " fill="#300E1E" transform="translate(118,357)"/>
<path d="M0 0 C0.66 0.33 1.32 0.66 2 1 C2 2.98 2 4.96 2 7 C1.01 7.495 1.01 7.495 0 8 C-0.38063221 5.6739143 -0.71269945 3.33944736 -1 1 C-0.67 0.67 -0.34 0.34 0 0 Z " fill="#742734" transform="translate(16,314)"/>
<path d="M0 0 C1.32 0.99 2.64 1.98 4 3 C3.67 4.65 3.34 6.3 3 8 C2.34 8 1.68 8 1 8 C1.020625 7.236875 1.04125 6.47375 1.0625 5.6875 C1.12942841 2.89814214 1.12942841 2.89814214 0 0 Z " fill="#4D1121" transform="translate(86,306)"/>
<path d="M0 0 C0.99 0.33 1.98 0.66 3 1 C3.33 3.31 3.66 5.62 4 8 C1 6 1 6 0.3125 2.875 C0.209375 1.92625 0.10625 0.9775 0 0 Z " fill="#450A1C" transform="translate(184,199)"/>
<path d="M0 0 C0.66 0.33 1.32 0.66 2 1 C2 2.98 2 4.96 2 7 C1.01 7.33 0.02 7.66 -1 8 C-0.67 5.36 -0.34 2.72 0 0 Z " fill="#7C2B34" transform="translate(122,137)"/>
<path d="M0 0 C0.66 0 1.32 0 2 0 C2 1.65 2 3.3 2 5 C1.01 5.495 1.01 5.495 0 6 C0 4.02 0 2.04 0 0 Z " fill="#D40016" transform="translate(210,56)"/>
<path d="M0 0 C0.33 0 0.66 0 1 0 C1 1.65 1 3.3 1 5 C0.67 5 0.34 5 0 5 C0 3.35 0 1.7 0 0 Z " fill="#5A0010" transform="translate(229,243)"/>
<path d="M0 0 C0.66 0.66 1.32 1.32 2 2 C1.01 2 0.02 2 -1 2 C-0.67 1.34 -0.34 0.68 0 0 Z " fill="#320000" transform="translate(133,243)"/>
<path d="M0 0 C1 4 1 4 1 4 Z " fill="#5C0000" transform="translate(213,292)"/>
<path d="M0 0 C0 3 0 3 0 3 Z " fill="#000000" transform="translate(164,196)"/>
<path d="M0 0 C0.66 0.66 1.32 1.32 2 2 C1.01 2.495 1.01 2.495 0 3 C0 2.01 0 1.02 0 0 Z " fill="#CD0000" transform="translate(178,78)"/>
<path d="" fill="#290000" transform="translate(0,0)"/>
<path d="" fill="#000000" transform="translate(0,0)"/>
<path d="M0 0 C2 1 2 1 2 1 Z " fill="#000000" transform="translate(94,336)"/>
<path d="" fill="#000000" transform="translate(0,0)"/>
<path d="" fill="#000000" transform="translate(0,0)"/>
<path d="" fill="#000000" transform="translate(0,0)"/>
<path d="" fill="#000000" transform="translate(0,0)"/>
<path d="" fill="#000000" transform="translate(0,0)"/>
<path d="" fill="#000000" transform="translate(0,0)"/>
<path d="" fill="#000000" transform="translate(0,0)"/>
<path d="" fill="#000000" transform="translate(0,0)"/>
<path d="" fill="#000000" transform="translate(0,0)"/>
<path d="" fill="#000000" transform="translate(0,0)"/>
<path d="" fill="#000000" transform="translate(0,0)"/>
<path d="" fill="#000000" transform="translate(0,0)"/>
<path d="" fill="#000000" transform="translate(0,0)"/>
<path d="" fill="#000000" transform="translate(0,0)"/>
<path d="" fill="#000000" transform="translate(0,0)"/>
<path d="" fill="#000000" transform="translate(0,0)"/>
<path d="" fill="#000000" transform="translate(0,0)"/>
<path d="" fill="#A00000" transform="translate(0,0)"/>
</svg>
